<?xml version="1.0" encoding="UTF-8"?>
<svg version="1.1" xmlns="http://www.w3.org/2000/svg" width="321" height="326">
<path d="M0 0 C1.02998708 -0.00779995 2.05997416 -0.01559991 3.12117296 -0.02363622 C6.54189467 -0.0434382 9.96148921 -0.02783721 13.38221741 -0.01205444 C15.84710332 -0.0188358 18.31198416 -0.02774184 20.77685547 -0.03860474 C26.75862887 -0.05898634 32.73996671 -0.05607367 38.72172277 -0.04154153 C43.58694412 -0.03021487 48.45207766 -0.02873313 53.31730843 -0.03416061 C54.01174439 -0.03492678 54.70618036 -0.03569294 55.42165985 -0.03648233 C56.83273822 -0.03808108 58.24381657 -0.03970215 59.6548949 -0.04134528 C72.86435702 -0.05557842 86.07364521 -0.03924901 99.2830788 -0.01234345 C110.59681104 0.00998823 121.91028668 0.00611644 133.22401428 -0.01693726 C146.38707321 -0.04374703 159.54997992 -0.05420016 172.71306235 -0.03887594 C174.11903701 -0.03728333 175.5250117 -0.03571147 176.9309864 -0.03416061 C177.62260878 -0.03338924 178.31423116 -0.03261786 179.02681179 -0.03182311 C183.8809586 -0.02752122 188.73500819 -0.03475997 193.58913994 -0.04655838 C200.13351143 -0.06211656 206.6774757 -0.05090322 213.22182655 -0.0220871 C215.61788509 -0.01549872 218.01398451 -0.0173352 220.41002655 -0.02840042 C238.69655887 -0.10503736 250.53109718 1.6955193 264.2769928 14.59194946 C277.78973947 28.54476643 278.20378483 42.16664717 278.04920959 60.65737915 C278.05378977 63.17521357 278.06139451 65.69304402 278.07177734 68.21086121 C278.08882304 74.31001631 278.0735994 80.40833974 278.0428138 86.50741759 C278.00822716 93.62181163 278.01021387 100.73606086 278.01329229 107.85052124 C278.01747225 120.54848472 277.98761122 133.24613965 277.93885803 145.94400024 C277.89164803 158.24517967 277.8704354 170.54605106 277.87733459 182.84732056 C277.88601026 198.41708272 277.87176246 213.98665747 277.83858221 229.55638628 C277.82869867 234.5076595 277.82693551 239.45889753 277.82793236 244.41017914 C277.82877146 251.07854053 277.80743019 257.74649808 277.77153969 264.41477776 C277.7614771 266.85843252 277.75813528 269.30212582 277.76208496 271.74579811 C277.76630635 275.0875338 277.74581943 278.42825464 277.71917725 281.76986694 C277.72949204 283.21181038 277.72949204 283.21181038 277.74001521 284.68288398 C277.57179052 297.10012933 271.62610458 306.7656018 263.28089905 315.67398071 C261.33810461 317.48512789 259.31467535 319.04050715 257.1910553 320.63491821 C256.55158746 321.16194242 255.91211962 321.68896662 255.25327396 322.23196125 C245.21864177 329.12221942 232.8784022 327.46543696 221.23377991 327.39541626 C218.68683118 327.4019148 216.13988791 327.41097962 213.59295654 327.42240906 C207.41127582 327.44305067 201.23017906 327.43581091 195.04851597 327.41490819 C190.0221337 327.39857917 184.99587481 327.3944356 179.96946907 327.39887428 C179.25225277 327.39950496 178.53503646 327.40013563 177.79608633 327.40078542 C176.33878049 327.40213156 174.88147467 327.40351114 173.42416889 327.40492377 C159.78171447 327.41684064 146.1395082 327.39284528 132.49711026 327.35590569 C120.80638109 327.32500905 109.11593728 327.32264722 97.42518616 327.34170532 C83.82778517 327.3638463 70.23054392 327.36993601 56.6331349 327.3493827 C55.18169854 327.3472199 53.73026216 327.3450708 52.27882576 327.34293556 C51.56480908 327.3418692 50.85079239 327.34080283 50.11513884 327.33970415 C45.09775557 327.33325067 40.08045488 327.33798285 35.06307793 327.34696007 C28.30360877 327.35863119 21.54470087 327.3433416 14.78528023 327.3102169 C12.30775912 327.30202269 9.83019316 327.3022783 7.35267639 327.3116951 C3.96463628 327.32315648 0.57810576 327.30368634 -2.80981445 327.27656555 C-3.78482928 327.28703704 -4.7598441 327.29750853 -5.76440483 327.30829734 C-17.56131212 327.13297059 -26.5476414 320.64358227 -34.8089447 312.63491821 C-39.33979752 307.09720922 -44.04919268 301.33105101 -44.07180023 293.95117664 C-44.07948252 293.00824593 -44.08716481 292.06531522 -44.0950799 291.09381086 C-44.09334693 290.06104526 -44.09161397 289.02827966 -44.08982849 287.96421814 C-44.09577074 286.8645914 -44.10171298 285.76496465 -44.10783529 284.63201588 C-44.12522805 280.93414093 -44.12822734 277.23639532 -44.13121033 273.53848267 C-44.1404654 270.89242438 -44.15047328 268.24637792 -44.16130066 265.60032654 C-44.18845737 258.40184836 -44.20051542 251.20339248 -44.20932198 244.00487161 C-44.21484903 239.50881431 -44.2233242 235.01276559 -44.23233032 230.5167141 C-44.25671535 218.06508709 -44.2773134 205.61346696 -44.28408051 193.1618166 C-44.28451964 192.3649661 -44.28495877 191.56811561 -44.28541121 190.74711813 C-44.28584776 189.9483737 -44.28628432 189.14962928 -44.2867341 188.32668048 C-44.28762103 186.7081536 -44.28851416 185.08962673 -44.28941345 183.47109985 C-44.28985631 182.66825667 -44.29029917 181.86541348 -44.29075545 181.03824171 C-44.29864886 168.03382122 -44.33354901 155.02962505 -44.3801325 142.02529118 C-44.42758818 128.66949559 -44.45248553 115.31381248 -44.45481634 101.95793122 C-44.45664838 94.46087216 -44.46811528 86.96410531 -44.50445557 79.46712685 C-44.53529673 73.08215525 -44.54547606 66.69756614 -44.52897936 60.31253419 C-44.52117911 57.05645745 -44.52623988 53.80130942 -44.55109406 50.54529572 C-44.57649769 47.00971506 -44.56480223 43.4761037 -44.54393005 39.9405365 C-44.56004286 38.91892451 -44.57615567 37.89731252 -44.59275675 36.8447426 C-44.49172037 29.51621658 -42.35323084 25.30014469 -37.8089447 19.63491821 C-37.0870697 18.62429321 -36.3651947 17.61366821 -35.6214447 16.57241821 C-26.57983496 6.17312266 -13.65475815 -0.16197073 0 0 Z " fill="#052D53" transform="translate(43.80894470214844,-0.634918212890625)"/>
<path d="M0 0 C0.92926969 -0.00453111 1.85853938 -0.00906223 2.81596875 -0.01373065 C5.91945744 -0.02635717 9.02277025 -0.02475539 12.12628174 -0.02310181 C14.3557457 -0.02908817 16.58520758 -0.03589396 18.81466675 -0.04345703 C24.86439576 -0.06111387 30.91406817 -0.0658123 36.96382046 -0.0670886 C40.7458168 -0.06851101 44.52779879 -0.07278233 48.30979156 -0.07808304 C60.82967618 -0.09562836 73.34952867 -0.10492342 85.869423 -0.10342209 C86.54361021 -0.10334218 87.21779742 -0.10326227 87.91241455 -0.10317993 C88.58743079 -0.10309817 89.26244704 -0.10301641 89.95791832 -0.10293217 C100.89146409 -0.10211969 111.82487197 -0.12125007 122.75837788 -0.14945666 C134.00115288 -0.17823082 145.24386281 -0.19162874 156.48668218 -0.19026911 C162.79209522 -0.18975984 169.09735218 -0.19542428 175.40273285 -0.21662521 C181.3355255 -0.23602896 187.26801353 -0.23611717 193.20081711 -0.22159195 C195.3731595 -0.21950539 197.54552106 -0.22419557 199.71783066 -0.23631287 C213.12041357 -0.30620659 224.94554296 -0.29066852 235.85772705 8.56430054 C240.98218462 13.64217213 244.25170855 20.16040094 244.82257271 27.37955284 C244.82072912 28.49492235 244.81888554 29.61029186 244.81698608 30.75946045 C244.82111008 32.69025955 244.82111008 32.69025955 244.82531738 34.6600647 C244.81824045 36.07394504 244.81097085 37.48782442 244.80352783 38.90170288 C244.8029633 40.40010572 244.8032811 41.89850911 244.80441284 43.39691162 C244.8049857 47.4543269 244.79324216 51.51162347 244.77926493 55.56901121 C244.7667465 59.81309117 244.76558619 64.05717396 244.76321411 68.30126953 C244.75700261 76.33343729 244.74059626 84.36555048 244.72051513 92.39769423 C244.69814586 101.54396365 244.68716011 110.6902357 244.67712426 119.83652568 C244.65622974 138.64685654 244.62106018 157.45713665 244.57647705 176.26742554 C237.97454328 169.69137636 231.80024813 162.83599478 225.95147705 155.57992554 C223.44674475 152.48151101 220.94256595 149.53445606 218.07647705 146.76742554 C215.29142283 144.07774989 212.87149089 141.22774282 210.45147705 138.20492554 C205.76379152 132.37742606 200.70624274 126.95071479 195.59210205 121.49789429 C193.25078862 118.99996403 190.95227543 116.47273269 188.70147705 113.89242554 C188.17811768 113.29301147 187.6547583 112.69359741 187.11553955 112.07601929 C186.00655928 110.77282674 184.92065385 109.44987218 183.84991455 108.11508179 C179.27443242 102.54186237 175.83681271 99.87604492 168.51397705 98.82992554 C157.78928466 100.42722015 149.20977235 113.44961322 142.57647705 121.26742554 C140.62019506 123.56084784 138.66108658 125.85184618 136.70147705 128.14242554 C136.17956787 128.7531189 135.65765869 129.36381226 135.11993408 129.99301147 C131.45271685 134.27390762 127.70578409 138.47312538 123.9163208 142.64633179 C121.10829855 145.79187925 118.37273979 148.99488097 115.63897705 152.20492554 C111.1219634 157.50616782 106.5068157 162.69310333 101.80303955 167.82992554 C96.69537431 173.42147485 91.78576641 179.17905938 86.88897705 184.95492554 C86.42499512 185.50197144 85.96101318 186.04901733 85.48297119 186.61264038 C82.79615556 189.79153083 80.16106163 193.00491714 77.57647705 196.26742554 C73.37047155 194.63674481 70.62622995 191.51804595 67.56085205 188.34164429 C66.37999024 187.1403468 65.19899641 185.93917908 64.0178833 184.73812866 C62.17453807 182.85147681 60.33375352 180.96241648 58.49591064 179.07040405 C56.71173364 177.23748036 54.91806615 175.4142436 53.12335205 173.59164429 C52.58659851 173.03313278 52.04984497 172.47462128 51.49682617 171.89918518 C46.82503632 167.16816552 41.77134631 162.90639939 35.13897705 161.57992554 C24.55771786 163.62192293 16.73151466 173.73865903 9.48272705 181.10336304 C8.24318713 182.35105222 7.00289917 183.59799866 5.76190186 184.84423828 C2.52047876 188.10266484 -0.71223539 191.36958657 -3.94268799 194.6388855 C-9.13857048 199.89432516 -14.34757879 205.13675137 -19.55690002 210.37886429 C-21.37500607 212.21096327 -23.18927126 214.04679926 -25.00299072 215.88323975 C-26.10597981 216.9962432 -27.20904364 218.10917259 -28.31219482 219.22201538 C-29.07105484 219.99333801 -29.07105484 219.99333801 -29.84524536 220.78024292 C-31.01913236 221.96169292 -32.2185885 223.11765697 -33.42352295 224.26742554 C-33.75352295 224.26742554 -34.08352295 224.26742554 -34.42352295 224.26742554 C-34.49363197 198.47650459 -34.54652045 172.68559794 -34.57895947 146.89460087 C-34.5944224 134.91915258 -34.61550104 122.94376353 -34.64984131 110.96835327 C-34.67976112 100.52949513 -34.69910212 90.0906799 -34.70578843 79.65178007 C-34.70969629 74.1254609 -34.71886853 68.59926449 -34.74071312 63.0729847 C-34.76111896 57.86837151 -34.76734842 52.66393131 -34.76284599 47.45928192 C-34.76366936 45.55217231 -34.76961049 43.64505674 -34.78113937 41.7379818 C-34.79614772 39.12661973 -34.79244637 36.51590395 -34.7842865 33.90452576 C-34.79302502 33.15644262 -34.80176355 32.40835948 -34.81076688 31.63760716 C-34.72880545 21.87993184 -31.37796578 15.40109376 -24.6930542 8.43539429 C-17.29873315 1.37197229 -9.92573229 -0.03577802 0 0 Z " fill="#F7C32E" transform="translate(54.42352294921875,21.732574462890625)"/>
<path d="M0 0 C3.0746802 1.34517259 4.87571902 2.72906454 7 5.3125 C10.18661752 9.08720574 13.50062494 12.7072355 16.875 16.3125 C20.65530668 20.36769535 24.2770649 24.48635247 27.75 28.8125 C30.98896436 32.84658919 34.39927525 36.5094284 38.10546875 40.11328125 C40.59501175 42.59255809 42.87516353 45.22253737 45.16796875 47.8828125 C51.27304268 54.93814314 57.6192854 61.78466878 63.93359375 68.65234375 C64.60600098 69.43061523 64.60600098 69.43061523 65.29199219 70.22460938 C67.04620428 72.13510219 67.04620428 72.13510219 69.54394531 73.96289062 C74.62661686 78.35764109 77.11394152 81.67573709 77.86791992 88.33276367 C78.18966988 93.65065581 78.13436358 98.94733068 77.97412109 104.27050781 C77.87501297 107.62456095 77.85113309 110.97273684 77.83984375 114.328125 C77.81167383 116.48183261 77.77926565 118.63548983 77.7421875 120.7890625 C77.7260994 122.27534653 77.7260994 122.27534653 77.70968628 123.79165649 C77.38242808 133.46190428 73.87676821 142.0649541 67 149 C62.58480704 152.21358981 58.32126445 154.74377117 53 156 C52.28038589 156.19290619 51.56077179 156.38581238 50.8193512 156.58456421 C33.47594718 161.07296485 12.743545 164.17046399 -4 156 C-30.95262405 139.48157758 -52.68673646 110.79785429 -73 87 C-70.34149313 82.94187464 -67.63595676 79.35002805 -64.3125 75.8125 C-60.98443328 72.20790295 -57.77023728 68.5664515 -54.6875 64.75 C-49.49923893 58.3286135 -44.07049945 52.1264378 -38.65087891 45.90087891 C-27.91692436 33.54143346 -17.2860898 21.08437688 -6.94921875 8.390625 C-4.65397477 5.57561635 -2.33260241 2.78407384 0 0 Z " fill="#0A89D9" transform="translate(222,149)"/>
<path d="M0 0 C2.91834217 1.31483573 4.94920929 2.71633276 7.171875 5.01171875 C7.75453125 5.60533203 8.3371875 6.19894531 8.9375 6.81054688 C9.535625 7.42994141 10.13375 8.04933594 10.75 8.6875 C14.30290441 12.34651992 17.85382931 15.9244785 21.734375 19.23828125 C27.82290954 24.48592707 33.36802481 30.31188021 39.00927734 36.02978516 C44.21304795 41.29782072 49.4262257 46.46947026 55.06054688 51.28320312 C59.69735954 55.38769288 63.94963239 59.91464318 68.2890625 64.328125 C72.41468776 68.49628248 76.61570205 72.47137545 81.0625 76.29394531 C84.34429548 79.18371179 87.4190257 82.2741911 90.5 85.375 C91.13164062 86.00277344 91.76328125 86.63054687 92.4140625 87.27734375 C93.30738281 88.17259766 93.30738281 88.17259766 94.21875 89.0859375 C94.75435547 89.6226709 95.28996094 90.1594043 95.84179688 90.71240234 C97 92 97 92 97 93 C78.6582715 93.11698723 60.31664032 93.20506331 41.97461891 93.25906086 C33.45739874 93.2848033 24.94041087 93.31987762 16.42333984 93.37719727 C8.99674644 93.42715405 1.57032135 93.45931979 -5.85643542 93.47044247 C-9.78612846 93.4769406 -13.71534016 93.49212911 -17.64487839 93.52865028 C-21.35006939 93.56280459 -25.05458473 93.5730144 -28.75991821 93.56553841 C-30.75479796 93.56755148 -32.74960556 93.59434435 -34.74429321 93.62210083 C-44.56893431 93.56622598 -51.54986172 91.32029908 -58.875 84.6875 C-62.61081616 80.63374204 -65.36051677 76.24309351 -66.43408203 70.79858398 C-65.7492313 66.38326119 -62.83123379 64.23446971 -59.68359375 61.23046875 C-59.03431412 60.59063553 -58.38503448 59.95080231 -57.71607971 59.2915802 C-55.63468813 57.2447785 -53.53697553 55.21573344 -51.4375 53.1875 C-49.366458 51.16672953 -47.29900687 49.14239163 -45.23390198 47.11555481 C-43.94913505 45.85678441 -42.66044061 44.60200462 -41.36705017 43.35209656 C-37.57633318 39.66380129 -34.02987369 35.84082811 -30.59274292 31.82034302 C-28.09698127 28.96794152 -25.40055421 26.33125525 -22.6875 23.6875 C-19.84871519 20.91855 -17.21359597 18.32039395 -15 15 C-14.34 15 -13.68 15 -13 15 C-12.78601563 14.45859375 -12.57203125 13.9171875 -12.3515625 13.359375 C-10.51922057 10.1607203 -8.00203394 7.79035516 -5.375 5.25 C-4.859375 4.74339844 -4.34375 4.23679688 -3.8125 3.71484375 C-2.54616661 2.47196098 -1.2736856 1.23534724 0 0 Z " fill="#0E8CEF" transform="translate(88,212)"/>
<path d="M0 0 C15.57524237 -0.99288637 28.20578524 2.23360726 40.2421875 12.47998047 C48.86511101 20.53513947 54.15121395 30.93383045 55.5 42.72607422 C55.91439009 59.0494402 50.48740031 71.16094032 39.4375 82.94873047 C35.95791481 86.19672929 32.43023775 88.24391808 28.08984375 90.14013672 C27.29320313 90.53072266 26.4965625 90.92130859 25.67578125 91.32373047 C15.4852529 95.77246566 2.65271369 95.87720358 -7.7890625 92.03857422 C-8.48902344 91.74208984 -9.18898438 91.44560547 -9.91015625 91.14013672 C-10.57917969 90.88490234 -11.24820313 90.62966797 -11.9375 90.36669922 C-21.89807173 86.06688806 -29.57957653 77.37320981 -34.91015625 68.14013672 C-35.34457031 67.39119141 -35.77898437 66.64224609 -36.2265625 65.87060547 C-40.93041095 55.72537136 -40.7573212 41.09803472 -37.921875 30.41748047 C-36.76090473 27.80439877 -35.50548073 25.50783731 -33.91015625 23.14013672 C-33.27078125 22.06763672 -32.63140625 20.99513672 -31.97265625 19.89013672 C-31.29203125 18.98263672 -30.61140625 18.07513672 -29.91015625 17.14013672 C-29.53890625 16.60130859 -29.16765625 16.06248047 -28.78515625 15.50732422 C-23.37273835 8.32298379 -13.64077428 1.67022415 -4.59765625 0.32373047 C-3.06488218 0.21902061 -1.53222857 0.11241043 0 0 Z " fill="#F08717" transform="translate(99.91015625,54.85986328125)"/>
<path d="M0 0 C3.0746802 1.34517259 4.87571902 2.72906454 7 5.3125 C10.18661752 9.08720574 13.50062494 12.7072355 16.875 16.3125 C20.65530668 20.36769535 24.2770649 24.48635247 27.75 28.8125 C30.98896436 32.84658919 34.39927525 36.5094284 38.10546875 40.11328125 C40.58937733 42.58694691 42.86544483 45.20890837 45.1484375 47.8671875 C47.24589003 50.28324041 49.40351162 52.6388321 51.5625 55 C55.31619344 59.15220199 58.75359131 63.44229682 62 68 C58.11602311 66.44997253 55.97020381 63.99523379 53.25 60.875 C52.45078125 59.96492188 51.6515625 59.05484375 50.828125 58.1171875 C50.22484375 57.41851562 49.6215625 56.71984375 49 56 C48.401875 56.33 47.80375 56.66 47.1875 57 C45 58 45 58 42 58 C42 55.36 42 52.72 42 50 C40.02 50.33 38.04 50.66 36 51 C35.01 48.36 34.02 45.72 33 43 C30.69 42.67 28.38 42.34 26 42 C25 35.375 25 35.375 25 32 C23.30804183 28.25654016 23.30804183 28.25654016 19.9375 26.25 C19.298125 26.1675 18.65875 26.085 18 26 C17.34 25.67 16.68 25.34 16 25 C16 24.34 16 23.68 16 23 C14.68 23.33 13.36 23.66 12 24 C12 22.35 12 20.7 12 19 C11.01 19.495 11.01 19.495 10 20 C10 17.03 10 14.06 10 11 C8.68 11 7.36 11 6 11 C6 10.34 6 9.68 6 9 C5.34 9 4.68 9 4 9 C4 8.34 4 7.68 4 7 C3.278125 7.433125 2.55625 7.86625 1.8125 8.3125 C-0.01116056 9.40669634 -1.86523297 10.45228087 -3.75 11.4375 C-6.46395488 13.32219089 -6.39113079 13.86867263 -7 17 C-8.23937448 19.39612399 -9.61756535 21.68107736 -11 24 C-11.99 23.67 -12.98 23.34 -14 23 C-14 23.99 -14 24.98 -14 26 C-14.99 26.33 -15.98 26.66 -17 27 C-17.12375 27.7425 -17.2475 28.485 -17.375 29.25 C-17.95486701 31.80141485 -18.73708739 33.7267573 -20 36 C-21.485 35.505 -21.485 35.505 -23 35 C-23.33 35.66 -23.66 36.32 -24 37 C-24.33 37.66 -24.66 38.32 -25 39 C-24.01 39.33 -23.02 39.66 -22 40 C-22.33 40.66 -22.66 41.32 -23 42 C-24.98 42 -26.96 42 -29 42 C-29.66 44.31 -30.32 46.62 -31 49 C-31.33 47.68 -31.66 46.36 -32 45 C-35.54518884 46.39759905 -35.54518884 46.39759905 -39 48 C-37.31078858 43.91190847 -34.44517134 40.8437182 -31.5625 37.5625 C-30.47359025 36.30761097 -29.3850569 35.05239524 -28.296875 33.796875 C-27.47026367 32.84651367 -27.47026367 32.84651367 -26.62695312 31.87695312 C-24.16776905 29.03988722 -21.73701269 26.17920853 -19.3125 23.3125 C-18.86253662 22.78076172 -18.41257324 22.24902344 -17.94897461 21.70117188 C-14.2360337 17.30204872 -10.58419189 12.85439812 -6.94921875 8.390625 C-4.65397477 5.57561635 -2.33260241 2.78407384 0 0 Z " fill="#14AAE9" transform="translate(222,149)"/>
<path d="M0 0 C0.99 0.33 1.98 0.66 3 1 C2.175 1.70125 1.35 2.4025 0.5 3.125 C-2.45620077 6.52463089 -2.28280545 7.6636498 -2 12 C-2.99 13.485 -2.99 13.485 -4 15 C-4 16.32 -4 17.64 -4 19 C-3.34 19.66 -2.68 20.32 -2 21 C-1.31731862 22.32520503 -0.6492959 23.65812182 0 25 C1.00836062 26.23267348 1.00836062 26.23267348 3.06640625 26.09765625 C3.89011719 26.08605469 4.71382812 26.07445312 5.5625 26.0625 C6.38878906 26.05347656 7.21507813 26.04445313 8.06640625 26.03515625 C8.70449219 26.02355469 9.34257813 26.01195312 10 26 C10 26.66 10 27.32 10 28 C10.66 28 11.32 28 12 28 C12.33 27.34 12.66 26.68 13 26 C14 30.75 14 30.75 14 33 C52.94 32.67 91.88 32.34 132 32 C133.45314664 27.39467611 133.45314664 27.39467611 132 25 C130.68 25 129.36 25 128 25 C128.66 22.36 129.32 19.72 130 17 C129.34 17 128.68 17 128 17 C128 16.34 128 15.68 128 15 C131.54433654 16.41773462 132.33806119 17.67612238 134 21 C134.57234375 21.26683594 135.1446875 21.53367187 135.734375 21.80859375 C138.79036309 23.41562197 140.83327037 25.60690484 143.25 28.0625 C144.14203125 28.96097656 145.0340625 29.85945313 145.953125 30.78515625 C148 33 148 33 148 34 C130.04964988 34.24781676 112.09919103 34.46629646 94.1480732 34.65021229 C85.81234944 34.7362929 77.47693803 34.83183597 69.14160156 34.94995117 C61.87335899 35.05292087 54.60516349 35.13783507 47.33646572 35.20140952 C43.49050461 35.23566918 39.645113 35.27873586 35.79953384 35.34345436 C32.17328779 35.40419562 28.54757718 35.44062776 24.92087746 35.45913696 C22.96881041 35.47522204 21.01699998 35.51643845 19.06532288 35.55863953 C9.31227369 35.5713393 2.38955872 33.26797506 -4.875 26.6875 C-8.76941792 22.46164226 -11.54760763 17.90823666 -12.4375 12.1875 C-11.88992503 9.44962513 -11.25414448 8.63231152 -9 7 C-8.195625 6.71125 -7.39125 6.4225 -6.5625 6.125 C-3.35134666 4.71522536 -2.00571417 2.82285699 0 0 Z " fill="#0D7BDA" transform="translate(34,270)"/>
<path d="M0 0 C1.38460711 -0.00128164 1.38460711 -0.00128164 2.79718608 -0.00258917 C5.89107082 -0.00423664 8.98490138 0.00126546 12.07878113 0.00672913 C14.2962392 0.00701118 16.51369737 0.0068529 18.7311554 0.00628662 C24.75340269 0.00599936 30.77563011 0.01188457 36.79787278 0.01886058 C43.09061982 0.02510599 49.38336729 0.02569886 55.67611694 0.02688599 C66.23888995 0.02964232 76.80165644 0.03589127 87.36442566 0.04481506 C98.24333154 0.05399638 109.12223544 0.06107369 120.00114441 0.06532288 C121.00728499 0.06571696 121.00728499 0.06571696 122.03375164 0.06611901 C125.39881449 0.06742406 128.76387735 0.06868777 132.12894022 0.06993091 C160.038251 0.08038736 187.94755364 0.09798003 215.8568573 0.12025452 C215.8568573 0.45025452 215.8568573 0.78025452 215.8568573 1.12025452 C214.71348278 1.12172108 213.57010826 1.12318764 212.39208603 1.12469864 C184.54821196 1.1613228 156.70445791 1.22081075 128.86068344 1.30415726 C126.17809318 1.31210848 123.49550269 1.31997483 120.81291199 1.32777405 C120.146162 1.32971542 119.47941202 1.33165679 118.79245749 1.333657 C108.01440309 1.3646286 97.23636995 1.3816441 86.45827946 1.39344874 C75.38855861 1.40588546 64.31895254 1.43373861 53.2493012 1.47486758 C47.03599783 1.49746886 40.82285282 1.51316598 34.6095047 1.51213837 C28.75554726 1.51139099 22.9019397 1.52937369 17.04807281 1.56142235 C14.90520321 1.56990729 12.7622943 1.57168089 10.61941528 1.56605721 C-4.29083827 1.53215401 -16.81786176 1.77162605 -28.07673645 12.74134827 C-33.98303434 19.5408481 -35.29007414 26.3623862 -35.30136108 35.11811829 C-35.30629906 35.93007935 -35.31123704 36.74204042 -35.31632465 37.57860637 C-35.33169674 40.30244796 -35.34005951 43.02626599 -35.34846497 45.75013733 C-35.35804371 47.70144356 -35.36805379 49.65274771 -35.37846375 51.60404968 C-35.4055192 56.90528338 -35.42652533 62.20652598 -35.44646573 67.50779057 C-35.4683213 73.04649546 -35.4957121 78.58517287 -35.52252197 84.12385559 C-35.57245464 94.61391686 -35.61739136 105.10399339 -35.66054434 115.5940845 C-35.70991179 127.53592709 -35.76483175 139.47774212 -35.82022393 151.41955805 C-35.9340528 175.98643115 -36.04088989 200.5533307 -36.1431427 225.12025452 C-36.4731427 225.12025452 -36.8031427 225.12025452 -37.1431427 225.12025452 C-37.26001581 199.08587281 -37.34815053 173.0515305 -37.40220356 147.01693916 C-37.42796996 134.92824146 -37.46309085 122.83970688 -37.52033997 110.75111389 C-37.5702225 100.21299595 -37.60244508 89.67499618 -37.61358517 79.13676345 C-37.62009564 73.55833866 -37.63536497 67.98025189 -37.67179298 62.40193558 C-37.70582882 57.14717212 -37.71618022 51.89288469 -37.70868111 46.63802147 C-37.71005225 44.71357699 -37.71993926 42.78911595 -37.73917007 40.86476707 C-37.83597152 30.67508762 -37.78817977 22.94963251 -32.1431427 14.12025452 C-31.66429363 12.7941509 -31.2042372 11.46102624 -30.7681427 10.12025452 C-29.1431427 7.12025452 -29.1431427 7.12025452 -25.9556427 5.93275452 C-24.0684552 5.53056702 -24.0684552 5.53056702 -22.1431427 5.12025452 C-20.09202609 4.16280729 -18.11844696 3.11290105 -16.1353302 2.02259827 C-10.97336182 -0.31546976 -5.54796556 -0.01877147 0 0 Z " fill="#050C30" transform="translate(56.14314270019531,19.879745483398438)"/>
<path d="M0 0 C0.33 0 0.66 0 1 0 C1.33 20.79 1.66 41.58 2 63 C2.99 63 3.98 63 5 63 C5 62.01 5 61.02 5 60 C5.99 60 6.98 60 8 60 C8 59.34 8 58.68 8 58 C7.34 58 6.68 58 6 58 C6 57.34 6 56.68 6 56 C8.64 56.66 11.28 57.32 14 58 C14 56.68 14 55.36 14 54 C15.32 54.33 16.64 54.66 18 55 C18.67801034 52.09926819 18.67801034 52.09926819 19 49 C18.34 48.34 17.68 47.68 17 47 C15.35 47.66 13.7 48.32 12 49 C13 46 13 46 14.765625 44.8203125 C17.25718223 43.90557995 19.10616836 43.79724025 21.75 43.875 C22.54921875 43.89304688 23.3484375 43.91109375 24.171875 43.9296875 C24.77515625 43.95289063 25.3784375 43.97609375 26 44 C26 43.34 26 42.68 26 42 C26.66 42 27.32 42 28 42 C28.66 40.35 29.32 38.7 30 37 C30.99 37.66 31.98 38.32 33 39 C33.33 37.35 33.66 35.7 34 34 C34.99 33.67 35.98 33.34 37 33 C38.21869929 30.49552484 38.21869929 30.49552484 39 28 C39.99 28 40.98 28 42 28 C42.0928125 27.1028125 42.0928125 27.1028125 42.1875 26.1875 C43.32282895 23.13084514 45.21152775 22.53365974 48 21 C48.33 20.34 48.66 19.68 49 19 C49.66 18.67 50.32 18.34 51 18 C51 17.34 51 16.68 51 16 C52.98 16 54.96 16 57 16 C57.66 14.02 58.32 12.04 59 10 C62.8063457 10.67170806 66.35206816 11.72746564 70 13 C70.33 12.34 70.66 11.68 71 11 C71.66 11 72.32 11 73 11 C73.33 10.34 73.66 9.68 74 9 C74.66 9 75.32 9 76 9 C75.49396008 11.16874252 75.00016187 12.99967627 74 15 C72.89591797 14.94779297 72.89591797 14.94779297 71.76953125 14.89453125 C64.40160777 14.62713299 64.40160777 14.62713299 58 18 C57.34 18 56.68 18 56 18 C56 18.66 56 19.32 56 20 C54.63768005 21.34107971 54.63768005 21.34107971 52.68920898 22.93969727 C47.69652286 27.18880203 43.09305384 31.79269283 38.48051643 36.44431877 C36.94041538 37.99735542 35.39706083 39.54709502 33.85289001 41.09608459 C30.58657378 44.37372346 27.32426635 47.65533411 24.0625 50.9375 C20.25612493 54.7674861 16.4481191 58.5958221 12.63592339 62.42001534 C11.11322801 63.94920557 9.5935638 65.48136543 8.07398987 67.01365662 C6.70137245 68.39122887 6.70137245 68.39122887 5.30102539 69.79663086 C4.08812584 71.01738564 4.08812584 71.01738564 2.85072327 72.26280212 C1 74 1 74 0 74 C0 49.58 0 25.16 0 0 Z " fill="#E6AC1C" transform="translate(22,168)"/>
<path d="M0 0 C2.91834217 1.31483573 4.94920929 2.71633276 7.171875 5.01171875 C7.75453125 5.60533203 8.3371875 6.19894531 8.9375 6.81054688 C9.8346875 7.73963867 9.8346875 7.73963867 10.75 8.6875 C14.36464135 12.41010077 17.98742031 16.04270676 21.921875 19.4296875 C26.32730281 23.22656893 30.41397815 27.30229455 34.5 31.4375 C35.22703125 32.16904297 35.9540625 32.90058594 36.703125 33.65429688 C38.47109499 35.43389824 40.23666378 37.21580918 42 39 C40.66666667 39 39.33333333 39 38 39 C38.33 39.66 38.66 40.32 39 41 C36.69 41.99 34.38 42.98 32 44 C32 41 32 38 32 35 C30.02 35.495 30.02 35.495 28 36 C28 35.34 28 34.68 28 34 C27.01 34 26.02 34 25 34 C24.505 30.04 24.505 30.04 24 26 C21.69 26.33 19.38 26.66 17 27 C16.855625 26.21625 16.71125 25.4325 16.5625 24.625 C16.12201075 22.03578982 16.12201075 22.03578982 15 20 C14.01 20.66 13.02 21.32 12 22 C9.70986347 18.5647952 9.82157027 17.014669 10 13 C1.47450532 10.87639475 1.47450532 10.87639475 -7 12 C-9.2889924 14.360962 -9.2889924 14.360962 -11 17 C-11.66 17.66 -12.32 18.32 -13 19 C-13 18.34 -13 17.68 -13 17 C-13.66 17 -14.32 17 -15 17 C-15 17.66 -15 18.32 -15 19 C-15.66 18.67 -16.32 18.34 -17 18 C-16.01 16.515 -16.01 16.515 -15 15 C-14.34 15 -13.68 15 -13 15 C-12.78601563 14.45859375 -12.57203125 13.9171875 -12.3515625 13.359375 C-10.51922057 10.1607203 -8.00203394 7.79035516 -5.375 5.25 C-4.859375 4.74339844 -4.34375 4.23679688 -3.8125 3.71484375 C-2.54616661 2.47196098 -1.2736856 1.23534724 0 0 Z M34 38 C33.67 38.66 33.34 39.32 33 40 C33.66 40 34.32 40 35 40 C34.67 39.34 34.34 38.68 34 38 Z " fill="#09A2F5" transform="translate(88,212)"/>
<path d="M0 0 C4.56406105 4.13497011 5.76470462 9.18101438 6.26786041 15.20913506 C6.37584179 19.0612586 6.38319314 22.90664805 6.35644531 26.75952148 C6.35723742 28.23541892 6.35933846 29.71131613 6.36264038 31.18721008 C6.3677455 35.17025648 6.35430057 39.15304165 6.33711338 43.13604617 C6.32201708 47.30977132 6.32325012 51.48349394 6.32244873 55.65724182 C6.31876493 62.65687491 6.30383656 69.65640941 6.28125 76.65600586 C6.25229664 85.64712722 6.24201792 94.63816962 6.2375679 103.62933254 C6.23359315 111.36125 6.22109745 119.09315023 6.20722103 126.82505536 C6.20312029 129.31144945 6.20019575 131.79784293 6.19742584 134.28423882 C6.19254135 138.1822527 6.18235243 142.08021843 6.16798782 145.97820854 C6.16345774 147.41093511 6.16062449 148.84366817 6.15958023 150.27640152 C6.15783984 152.22610168 6.14933498 154.17579237 6.14044189 156.12547302 C6.13746723 157.21809165 6.13449257 158.31071028 6.13142776 159.43643856 C6 162 6 162 5 164 C2.23977642 162.91562645 1.0146221 162.01916 -0.8125 159.625 C-3.56139124 156.32633051 -6.20710863 154.9693859 -10 153 C-9.67 152.01 -9.34 151.02 -9 150 C-9 149.01 -9 148.02 -9 147 C-7.18472893 148.95582748 -5.37271109 150.91449877 -3.5625 152.875 C-3.04623047 153.43058594 -2.52996094 153.98617187 -1.99804688 154.55859375 C1.88671875 158.7734375 1.88671875 158.7734375 3 161 C3.07017853 141.48477683 3.12303145 121.96957938 3.15543652 102.45425606 C3.17088477 93.39231261 3.19193514 84.33044771 3.22631836 75.26855469 C3.25628335 67.36732296 3.27558983 59.46614815 3.28226548 51.56486118 C3.28616574 47.38379739 3.29528905 43.20289638 3.31719017 39.02188492 C3.33766769 35.08042804 3.34381123 31.13919981 3.33932304 27.19769478 C3.34014324 25.75703117 3.34604154 24.3163593 3.35761642 22.87574196 C3.41980614 14.73083818 2.96473558 7.64001116 0 0 Z " fill="#0D1A1B" transform="translate(295,36)"/>
<path d="M0 0 C3.42428966 1.14142989 3.76069516 1.72214721 5.5625 4.6875 C5.97628906 5.35136719 6.39007813 6.01523437 6.81640625 6.69921875 C9.34935515 11.6230039 10.24962842 15.97480707 10.24050903 21.49203491 C10.24325836 22.77923431 10.24600769 24.06643372 10.24884033 25.39263916 C10.2417634 26.8065195 10.2344938 28.22039888 10.22705078 29.63427734 C10.22648625 31.13268018 10.22680405 32.63108357 10.22793579 34.12948608 C10.22850865 38.18690136 10.21676511 42.24419793 10.20278788 46.30158567 C10.19026945 50.54566563 10.18910914 54.78974843 10.18673706 59.03384399 C10.18052556 67.06601175 10.16411921 75.09812494 10.14403808 83.13026869 C10.12166881 92.27653811 10.11068306 101.42281017 10.10064721 110.56910014 C10.07975269 129.37943101 10.04458313 148.18971111 10 167 C6.65340774 163.66663951 3.37121351 160.30244135 0.1875 156.8125 C-0.99779297 155.52279297 -0.99779297 155.52279297 -2.20703125 154.20703125 C-4 152 -4 152 -4 150 C-3.34 150 -2.68 150 -2 150 C-0.39821407 151.78104718 1.13381926 153.62537278 2.625 155.5 C3.85089844 157.03140625 3.85089844 157.03140625 5.1015625 158.59375 C5.72804688 159.3878125 6.35453125 160.181875 7 161 C7.09354913 141.98906179 7.16403098 122.97817046 7.20724869 103.9670496 C7.22785112 95.13933162 7.25592724 86.31175688 7.30175781 77.48413086 C7.34169675 69.78763319 7.36744966 62.09123929 7.37635398 54.39464086 C7.38155683 50.32142025 7.39373663 46.24849642 7.42292023 42.17537117 C7.45020114 38.33646472 7.45841965 34.49797551 7.45243073 30.65898132 C7.45352533 29.25497605 7.46140377 27.85095588 7.4768219 26.44703484 C7.55867729 18.60461341 7.42255131 11.72361695 3 5 C2.46046818 4.46828218 1.92093636 3.93656435 1.36505508 3.38873386 C0 2 0 2 0 0 Z " fill="#F4DE6E" transform="translate(289,31)"/>
<path d="M0 0 C0 3 0 3 -1.66821289 4.8659668 C-2.4286792 5.55343994 -3.18914551 6.24091309 -3.97265625 6.94921875 C-4.78927734 7.71556641 -5.60589844 8.48191406 -6.44726562 9.27148438 C-8.18317261 10.87515647 -9.93055981 12.46649494 -11.68945312 14.04492188 C-16.12663739 17.97755576 -16.12663739 17.97755576 -18.42993164 23.21850586 C-17.75028825 30.24257547 -13.1042738 35.2857461 -8.0625 39.8125 C-1.50069487 44.49950366 4.87140221 46.10733255 12.80232239 46.15821838 C14.54174103 46.17290161 14.54174103 46.17290161 16.31629944 46.18788147 C18.21091164 46.19651466 18.21091164 46.19651466 20.14379883 46.20532227 C21.49427587 46.21490783 22.84474995 46.22491831 24.19522095 46.23532104 C27.85388012 46.2623027 31.51255211 46.28334864 35.17125535 46.30332303 C38.99763195 46.32522427 42.82396937 46.35259268 46.65031433 46.37937927 C53.89269167 46.42925028 61.13509082 46.47420981 68.37751073 46.51740164 C76.62417035 46.56682186 84.87079065 46.62172222 93.11741221 46.67708123 C110.07823843 46.79081541 127.0391012 46.89767303 144 47 C144 47.33 144 47.66 144 48 C125.90172697 48.07017209 107.8034894 48.12302828 89.7051096 48.15543652 C81.30116279 48.17088614 72.89730065 48.19193913 64.4934082 48.22631836 C57.16607493 48.25627916 49.838803 48.27558884 42.51141018 48.28226548 C38.63386274 48.28616646 34.75649076 48.29529428 30.87899971 48.31719017 C27.22399199 48.3376611 23.56923082 48.34381257 19.91417122 48.33932304 C17.94420337 48.34053263 15.97426194 48.35661899 14.00436401 48.3732605 C2.65995213 48.33395766 -5.8335375 46.19710588 -14 38 C-18.10318157 32.64091799 -20.71830638 27.85515337 -21 21 C-19.18579102 18.27758789 -19.18579102 18.27758789 -16.50390625 15.72265625 C-16.03637436 15.26644394 -15.56884247 14.81023163 -15.08714294 14.3401947 C-13.5967036 12.89436711 -12.08089493 11.47888266 -10.5625 10.0625 C-9.54441497 9.08456207 -8.5281157 8.10476143 -7.51367188 7.12304688 C-5.02943341 4.72677628 -2.52165044 2.3569402 0 0 Z " fill="#000C2C" transform="translate(41,259)"/>
<path d="M0 0 C3.47055942 1.15685314 4.46531802 2.39491018 7 5 C8.07410346 5.94806071 9.1583993 6.88463941 10.25 7.8125 C10.85585938 8.32941406 11.46171875 8.84632813 12.0859375 9.37890625 C13.35685636 10.45529671 14.6328861 11.52568295 15.9140625 12.58984375 C24.00880228 19.4429601 30.85494952 27.37283109 37 36 C33.11602311 34.44997253 30.97020381 31.99523379 28.25 28.875 C27.45078125 27.96492188 26.6515625 27.05484375 25.828125 26.1171875 C24.92320312 25.06917969 24.92320312 25.06917969 24 24 C23.401875 24.33 22.80375 24.66 22.1875 25 C20 26 20 26 17 26 C17 23.36 17 20.72 17 18 C15.02 18.33 13.04 18.66 11 19 C10.01 16.36 9.02 13.72 8 11 C5.69 10.67 3.38 10.34 1 10 C0 3.375 0 3.375 0 0 Z M4 5 C5 7 5 7 5 7 Z " fill="#17A2E3" transform="translate(247,181)"/>
<path d="M0 0 C-0.33 0.99 -0.66 1.98 -1 3 C-3.31104818 4.05047644 -5.64583651 5.05007438 -8 6 C-8.66 6.66 -9.32 7.32 -10 8 C-12.60737139 10.13938166 -15.19183008 12.12788672 -18 14 C-18.25030977 16.58380177 -18.25030977 16.58380177 -18 19 C-18.99 19 -19.98 19 -21 19 C-21.33 19.66 -21.66 20.32 -22 21 C-22.99 21.66 -23.98 22.32 -25 23 C-25.66 23.99 -26.32 24.98 -27 26 C-27.12375 25.360625 -27.2475 24.72125 -27.375 24.0625 C-27.58125 23.381875 -27.7875 22.70125 -28 22 C-28.66 21.67 -29.32 21.34 -30 21 C-24.62287316 13.48126676 -10.63708038 -3.54569346 0 0 Z " fill="#18304B" transform="translate(33,2)"/>
<path d="M0 0 C0.99 0.66 1.98 1.32 3 2 C3.40545654 4.30160522 3.40545654 4.30160522 3.44824219 7.21240234 C3.47126404 8.30048187 3.49428589 9.3885614 3.51800537 10.50961304 C3.52753235 11.68980011 3.53705933 12.86998718 3.546875 14.0859375 C3.56719788 15.29440338 3.58752075 16.50286926 3.60845947 17.74795532 C3.64873447 20.3084331 3.68187605 22.86903136 3.70849609 25.4296875 C3.7497575 29.35194801 3.81237481 33.27340732 3.87890625 37.1953125 C3.91531926 39.6796694 3.9505158 42.16404448 3.984375 44.6484375 C4.0019989 45.82457611 4.0196228 47.00071472 4.03778076 48.2124939 C4.05340057 49.85406967 4.05340057 49.85406967 4.06933594 51.52880859 C4.08027283 52.49096283 4.09120972 53.45311707 4.10247803 54.44442749 C3.93187896 58.69878617 3.65458215 60.37814695 0.5 63.375 C-2.39463096 66.4143625 -2.37535047 67.98439588 -3 72 C-5.97031385 73.98703754 -8.73545286 74.34753575 -12.25 74.625 C-13.58804687 74.73714844 -13.58804687 74.73714844 -14.953125 74.8515625 C-15.62859375 74.90054688 -16.3040625 74.94953125 -17 75 C-14.87677791 72.75149462 -12.67877348 71.04648238 -10.125 69.3125 C-4.11469272 64.86001133 -0.91313152 59.17289317 1 52 C1.28159762 48.265781 1.25654598 44.54400548 1.23046875 40.80078125 C1.23001053 39.72877975 1.22955231 38.65677826 1.2290802 37.55229187 C1.22606719 35.29388314 1.21820948 33.03547631 1.20581055 30.77709961 C1.18750907 27.31421584 1.18530133 23.85159905 1.18554688 20.38867188 C1.18063295 18.19270601 1.17480517 15.99674197 1.16796875 13.80078125 C1.16685593 12.76327225 1.1657431 11.72576324 1.16459656 10.65681458 C1.15821671 9.69539047 1.15183685 8.73396637 1.14526367 7.7434082 C1.14145187 6.89768753 1.13764008 6.05196686 1.13371277 5.18061829 C1.08288731 2.81937539 1.08288731 2.81937539 0 0 Z " fill="#021941" transform="translate(297,229)"/>
<path d="M0 0 C9.39948026 4.92616709 17.2829702 11.21215599 22.32421875 20.7421875 C21.99421875 21.4021875 21.66421875 22.0621875 21.32421875 22.7421875 C20.9375 22.18789062 20.55078125 21.63359375 20.15234375 21.0625 C19.37117188 19.97582031 19.37117188 19.97582031 18.57421875 18.8671875 C17.80851562 17.78824219 17.80851562 17.78824219 17.02734375 16.6875 C14.43313912 13.72439471 11.2240203 12.26216104 7.32421875 11.7421875 C6.66421875 12.4021875 6.00421875 13.0621875 5.32421875 13.7421875 C4.66421875 13.4121875 4.00421875 13.0821875 3.32421875 12.7421875 C2.76171875 10.4296875 2.76171875 10.4296875 2.32421875 7.7421875 C1.99938457 6.40675811 1.66913325 5.07257199 1.32421875 3.7421875 C0.54046875 3.9278125 -0.24328125 4.1134375 -1.05078125 4.3046875 C-3.67578125 4.7421875 -3.67578125 4.7421875 -5.67578125 3.7421875 C-5.67578125 2.7521875 -5.67578125 1.7621875 -5.67578125 0.7421875 C-14.59088763 -1.8993255 -23.46973939 -1.43657059 -32.67578125 -1.2578125 C-24.18120633 -6.85344518 -8.63339618 -3.54961933 0 0 Z " fill="#E16A10" transform="translate(126.67578125,58.2578125)"/>
<path d="M0 0 C3.48005448 0.08194222 6.95849001 0.19468049 10.4375 0.3125 C11.41138672 0.33505859 12.38527344 0.35761719 13.38867188 0.38085938 C19.76733145 0.61552578 25.07783021 1.63788313 31 4 C31.95390625 4.350625 32.9078125 4.70125 33.890625 5.0625 C45.17295756 9.54554605 45.17295756 9.54554605 47.8125 14.1875 C48.4003125 15.5796875 48.4003125 15.5796875 49 17 C46.08119014 15.63180788 43.59827626 14.02449742 41 12.125 C29.30920996 4.39429929 16.64506621 3.58631259 3.05859375 5.390625 C-1.05333161 6.25336399 -5.04833551 7.58145377 -9 9 C-7.38216989 7.22038688 -6.14516309 6.06598322 -3.9375 5.0625 C-1.5274317 3.74084964 -1.11408388 2.45098454 0 0 Z " fill="#FDCE47" transform="translate(92,51)"/>
<path d="M0 0 C0.33 0 0.66 0 1 0 C1 37.95 1 75.9 1 115 C-0.65 113.35 -2.3 111.7 -4 110 C-3.67 109.01 -3.34 108.02 -3 107 C-2.01 106.505 -2.01 106.505 -1 106 C-0.67 71.02 -0.34 36.04 0 0 Z " fill="#EBBD1C" transform="translate(296,78)"/>
<path d="M0 0 C4.45724348 1.95493135 5.90075573 3.52955414 8.5625 7.5625 C8.5625 8.8825 8.5625 10.2025 8.5625 11.5625 C13.5125 11.8925 18.4625 12.2225 23.5625 12.5625 C23.5625 12.8925 23.5625 13.2225 23.5625 13.5625 C5.3598251 15.47505144 5.3598251 15.47505144 -0.21484375 11.11328125 C-2.95939595 8.50589237 -5.25332377 5.64840037 -7.4375 2.5625 C-3.8671875 -0.4921875 -3.8671875 -0.4921875 0 0 Z " fill="#0772CC" transform="translate(215.4375,290.4375)"/>
<path d="M0 0 C3.33727786 1.17255709 5.77437487 2.18868404 8 5 C8 5.66 8 6.32 8 7 C8.66 7 9.32 7 10 7 C9.67 8.65 9.34 10.3 9 12 C9.66 12 10.32 12 11 12 C10.67 13.32 10.34 14.64 10 16 C13.19902639 16.08886184 15.92677456 15.91058531 19 15 C19.33 16.32 19.66 17.64 20 19 C19.443125 18.814375 18.88625 18.62875 18.3125 18.4375 C15.96830558 17.81717436 15.96830558 17.81717436 13.59106445 18.67163086 C11 19 11 19 9.05541992 17.73657227 C8.45318604 17.10291748 7.85095215 16.4692627 7.23046875 15.81640625 C6.56982422 15.13642578 5.90917969 14.45644531 5.22851562 13.75585938 C4.55498047 13.03205078 3.88144531 12.30824219 3.1875 11.5625 C2.49462891 10.84255859 1.80175781 10.12261719 1.08789062 9.38085938 C-0.62228291 7.59992004 -2.31695799 5.80653898 -4 4 C-3.34 3.67 -2.68 3.34 -2 3 C-1.67 2.34 -1.34 1.68 -1 1 C-0.67 0.67 -0.34 0.34 0 0 Z " fill="#077CD3" transform="translate(196,273)"/>
<path d="M0 0 C8.77150636 7.09185621 15.77369742 15.6312114 22.84765625 24.37109375 C25.81176863 27.99150687 28.88739268 31.5070741 32 35 C31.01 35.495 31.01 35.495 30 36 C28.76302083 34.47005208 27.52604167 32.94010417 26.2890625 31.41015625 C25.0333609 29.86733563 25.0333609 29.86733563 23 29 C22.67 29.99 22.34 30.98 22 32 C21.67 31.34 21.34 30.68 21 30 C20.34 30 19.68 30 19 30 C18.67 29.01 18.34 28.02 18 27 C18.33 26.34 18.66 25.68 19 25 C16.69 25.99 14.38 26.98 12 28 C12.33 27.484375 12.66 26.96875 13 26.4375 C14.43931884 22.92916034 14.57553099 20.77292537 14 17 C12.50291246 15.04227014 10.85278435 13.48608302 9.0234375 11.8359375 C6.88476655 9.89544456 4.97522376 7.85004891 3.0625 5.6875 C2.47597656 5.03136719 1.88945312 4.37523437 1.28515625 3.69921875 C0 2 0 2 0 0 Z " fill="#122134" transform="translate(247,140)"/>
<path d="M0 0 C3.54433654 1.41773462 4.33806119 2.67612238 6 6 C6.61359375 6.29648437 7.2271875 6.59296875 7.859375 6.8984375 C10.29827286 8.15349078 11.52612885 9.50933995 13.25 11.625 C13.77078125 12.25664062 14.2915625 12.88828125 14.828125 13.5390625 C15.40820312 14.26222656 15.40820312 14.26222656 16 15 C15.401875 15.14179688 14.80375 15.28359375 14.1875 15.4296875 C11.83605364 16.00242532 11.83605364 16.00242532 9 17.125 C6.02850538 17.99168593 4.82462239 18.08639323 2 17 C2.66 17 3.32 17 4 17 C5.00217064 13.41672247 5.00217064 13.41672247 4 10 C2.68 10 1.36 10 0 10 C0.66 7.36 1.32 4.72 2 2 C1.34 2 0.68 2 0 2 C0 1.34 0 0.68 0 0 Z " fill="#0980E3" transform="translate(162,285)"/>
<path d="M0 0 C0.99 0.99 1.98 1.98 3 3 C-1.16240391 7.90950205 -5.42718104 12.71251986 -9.7421875 17.48828125 C-12.86395049 20.96110755 -15.93761478 24.47481058 -19 28 C-19 27.01 -19 26.02 -19 25 C-18 24 -17 23 -16 22 C-15.28552357 19.89667109 -15.28552357 19.89667109 -15 18 C-14.34 18 -13.68 18 -13 18 C-12.67 17.34 -12.34 16.68 -12 16 C-10.68671343 14.64691687 -9.35500919 13.31129922 -8 12 C-8.66 12 -9.32 12 -10 12 C-10 11.34 -10 10.68 -10 10 C-10.66 10 -11.32 10 -12 10 C-11.625 7.5625 -11.625 7.5625 -11 5 C-10.34 4.67 -9.68 4.34 -9 4 C-9 4.66 -9 5.32 -9 6 C-7.68277821 5.57692877 -6.37127336 5.13602514 -5.0625 4.6875 C-3.96615234 4.32205078 -3.96615234 4.32205078 -2.84765625 3.94921875 C-0.64067976 3.08759559 -0.64067976 3.08759559 0 0 Z " fill="#EAC335" transform="translate(180,156)"/>
<path d="M0 0 C3.83078469 1.56069006 6.14143762 4.06814114 9 7 C9.99 7.66 10.98 8.32 12 9 C11.67 8.01 11.34 7.02 11 6 C11.66 5.67 12.32 5.34 13 5 C13.66 6.32 14.32 7.64 15 9 C16.65 8.67 18.3 8.34 20 8 C20 9.65 20 11.3 20 13 C21.98 13 23.96 13 26 13 C26 13.99 26 14.98 26 16 C23.92446352 16.5534764 22.15634036 17 20 17 C20 17.66 20 18.32 20 19 C20.99 19.33 21.98 19.66 23 20 C22.67 20.66 22.34 21.32 22 22 C16.54897865 17.49698236 11.50310185 12.61291409 6.5 7.625 C5.86433105 6.99384277 5.22866211 6.36268555 4.57373047 5.71240234 C3.98221191 5.1189502 3.39069336 4.52549805 2.78125 3.9140625 C2.24564453 3.3773291 1.71003906 2.8405957 1.15820312 2.28759766 C0 1 0 1 0 0 Z " fill="#022146" transform="translate(164,283)"/>
<path d="M0 0 C0 3 0 3 -1.66821289 4.8659668 C-2.4286792 5.55343994 -3.18914551 6.24091309 -3.97265625 6.94921875 C-4.78927734 7.71556641 -5.60589844 8.48191406 -6.44726562 9.27148438 C-8.18317261 10.87515647 -9.93055981 12.46649494 -11.68945312 14.04492188 C-16.12663739 17.97755576 -16.12663739 17.97755576 -18.42993164 23.21850586 C-17.75028825 30.24257547 -13.1042738 35.2857461 -8.0625 39.8125 C-3.38936024 43.15045697 1.32098591 45.13954332 7 46 C6.67 46.66 6.34 47.32 6 48 C-2.61030828 46.75011654 -9.0704791 43.44805562 -14.89453125 36.85546875 C-16.53853995 34.57145666 -17.85474553 32.57682256 -19 30 C-19.31759277 29.37134033 -19.63518555 28.74268066 -19.96240234 28.0949707 C-20.97652403 25.45502089 -21.32312987 23.82657039 -21 21 C-18.11469288 16.71476734 -14.42304221 13.38760717 -10.625 9.9375 C-9.60169235 8.96940563 -8.58082633 7.99872342 -7.5625 7.02539062 C-5.06452197 4.65702466 -2.54466166 2.31796927 0 0 Z " fill="#001740" transform="translate(41,259)"/>
<path d="M0 0 C0.52851562 0.2371875 1.05703125 0.474375 1.6015625 0.71875 C0.77011719 1.10546875 -0.06132813 1.4921875 -0.91796875 1.890625 C-2.00464844 2.41140625 -3.09132813 2.9321875 -4.2109375 3.46875 C-5.28988281 3.97921875 -6.36882812 4.4896875 -7.48046875 5.015625 C-10.35773063 6.6949907 -11.78290242 7.83912957 -13.3984375 10.71875 C-13.3984375 11.70875 -13.3984375 12.69875 -13.3984375 13.71875 C-14.89453125 15.25390625 -14.89453125 15.25390625 -16.8359375 16.78125 C-19.55718943 18.8858833 -19.55718943 18.8858833 -21.3984375 21.71875 C-22.3884375 22.04875 -23.3784375 22.37875 -24.3984375 22.71875 C-25.64793802 25.27276848 -25.64793802 25.27276848 -26.5859375 28.28125 C-26.93011719 29.29316406 -27.27429688 30.30507812 -27.62890625 31.34765625 C-27.88285156 32.13011719 -28.13679688 32.91257813 -28.3984375 33.71875 C-29.93501867 29.33701532 -28.48713935 26.96503167 -26.56640625 22.953125 C-25.03639875 20.02615414 -23.36272923 17.37632116 -21.3984375 14.71875 C-21.02589844 14.17734375 -20.65335938 13.6359375 -20.26953125 13.078125 C-16.30669906 7.82589369 -6.95486608 -0.81555433 0 0 Z " fill="#E0720E" transform="translate(91.3984375,57.28125)"/>
<path d="M0 0 C3.90285767 1.58667578 6.33520982 4.13350481 9.25 7.125 C10.14203125 8.03507813 11.0340625 8.94515625 11.953125 9.8828125 C12.62859375 10.58148438 13.3040625 11.28015625 14 12 C11 12 11 12 8.73828125 10.03125 C7.93777344 9.1959375 7.13726562 8.360625 6.3125 7.5 C5.50425781 6.6646875 4.69601563 5.829375 3.86328125 4.96875 C3.24839844 4.3190625 2.63351563 3.669375 2 3 C0.02 3.99 0.02 3.99 -2 5 C-1.34 5 -0.68 5 0 5 C0 5.99 0 6.98 0 8 C-0.99 8 -1.98 8 -3 8 C-3.33 9.32 -3.66 10.64 -4 12 C-4.99 12 -5.98 12 -7 12 C-9.10770734 14.36375566 -9.10770734 14.36375566 -11 17 C-11.66 17.66 -12.32 18.32 -13 19 C-13 18.34 -13 17.68 -13 17 C-13.66 17 -14.32 17 -15 17 C-15 17.66 -15 18.32 -15 19 C-15.66 18.67 -16.32 18.34 -17 18 C-16.01 16.515 -16.01 16.515 -15 15 C-14.34 15 -13.68 15 -13 15 C-12.78601563 14.45859375 -12.57203125 13.9171875 -12.3515625 13.359375 C-10.51922057 10.1607203 -8.00203394 7.79035516 -5.375 5.25 C-4.859375 4.74339844 -4.34375 4.23679688 -3.8125 3.71484375 C-2.54616661 2.47196098 -1.2736856 1.23534724 0 0 Z " fill="#24B3F3" transform="translate(88,212)"/>
<path d="M0 0 C3.6064509 1.2021503 4.30038731 2.38088843 6.5625 5.375 C11.08720946 11.2057243 15.98325909 16.59261124 21 22 C21.99 21.67 22.98 21.34 24 21 C26.5 23.1875 26.5 23.1875 29 26 C29.04063832 27.66617115 29.042721 29.33388095 29 31 C30.89584109 33.31377147 30.89584109 33.31377147 33 35 C32.505 35.99 32.505 35.99 32 37 C27.08266969 32.18302337 22.29807787 27.32044714 17.8125 22.09765625 C15.74149659 19.70082688 13.62396782 17.34999818 11.5 15 C10.74847656 14.1646875 9.99695313 13.329375 9.22265625 12.46875 C7.7755913 10.8614652 6.32523307 9.25713732 4.87109375 7.65625 C4.23300781 6.9446875 3.59492188 6.233125 2.9375 5.5 C2.36902344 4.8709375 1.80054688 4.241875 1.21484375 3.59375 C0 2 0 2 0 0 Z " fill="#012349" transform="translate(247,174)"/>
<path d="M0 0 C3.90285767 1.58667578 6.33520982 4.13350481 9.25 7.125 C10.14203125 8.03507813 11.0340625 8.94515625 11.953125 9.8828125 C12.62859375 10.58148438 13.3040625 11.28015625 14 12 C12.68 10.02 11.36 8.04 10 6 C11.65 5.34 13.3 4.68 15 4 C14.67 4.99 14.34 5.98 14 7 C15.32 7.33 16.64 7.66 18 8 C18 8.66 18 9.32 18 10 C18.99 10.33 19.98 10.66 21 11 C20.34 11 19.68 11 19 11 C19.33 11.66 19.66 12.32 20 13 C21.65 11.68 23.3 10.36 25 9 C23.47291037 12.43595166 21.40072955 15.11912454 19 18 C15.86421688 16.60982588 13.73988136 14.98666305 11.328125 12.55859375 C10.66425781 11.89279297 10.00039062 11.22699219 9.31640625 10.54101562 C8.63449219 9.84685547 7.95257813 9.15269531 7.25 8.4375 C6.55261719 7.73947266 5.85523437 7.04144531 5.13671875 6.32226562 C0 1.14031158 0 1.14031158 0 0 Z " fill="#EAC143" transform="translate(113,200)"/>
<path d="M0 0 C0.515625 0.37125 1.03125 0.7425 1.5625 1.125 C-0.4375 3.125 -2.4375 5.125 -4.4375 7.125 C-5.79875 7.0321875 -5.79875 7.0321875 -7.1875 6.9375 C-11.81405581 7.20441668 -13.19130655 8.87880655 -16.4375 12.125 C-16.7675 13.115 -17.0975 14.105 -17.4375 15.125 C-18.4275 15.455 -19.4175 15.785 -20.4375 16.125 C-20.7675 17.115 -21.0975 18.105 -21.4375 19.125 C-22.0975 19.125 -22.7575 19.125 -23.4375 19.125 C-22.84382048 15.58667007 -21.50687798 13.7095978 -19.125 11.0625 C-18.53074219 10.39089844 -17.93648437 9.71929687 -17.32421875 9.02734375 C-15.46423843 7.15195986 -13.63962338 5.58248785 -11.4375 4.125 C-10.7775 4.125 -10.1175 4.125 -9.4375 4.125 C-9.4375 3.135 -9.4375 2.145 -9.4375 1.125 C-3.0375 -1.09038462 -3.0375 -1.09038462 0 0 Z " fill="#F3CC2E" transform="translate(47.4375,22.875)"/>
<path d="M0 0 C0.66 0.33 1.32 0.66 2 1 C4.09821215 0.60061233 4.09821215 0.60061233 6 0 C5.34 0.61875 4.68 1.2375 4 1.875 C-4.63689556 10.56110864 -9.9236461 19.58620907 -14 31 C-14.94314127 27.58389775 -15.08065117 24.54865136 -15 21 C-14.01 21 -13.02 21 -12 21 C-11.71125 20.2575 -11.4225 19.515 -11.125 18.75 C-10 16 -10 16 -8.875 14.0625 C-7.7125607 11.3224645 -7.93589568 8.94879849 -8 6 C-7.67 5.34 -7.34 4.68 -7 4 C-5.35 4.33 -3.7 4.66 -2 5 C-1.34 3.35 -0.68 1.7 0 0 Z " fill="#FCCB3B" transform="translate(75,61)"/>
<path d="M0 0 C3.4473424 2.27389849 6.18778938 4.99062332 9 8 C9.69867188 8.72703125 10.39734375 9.4540625 11.1171875 10.203125 C16 15.49774096 16 15.49774096 16 19 C15.278125 18.175 14.55625 17.35 13.8125 16.5 C11.29221472 13.73977381 11.29221472 13.73977381 8.32421875 13.84375 C7.55722656 13.8953125 6.79023438 13.946875 6 14 C5.74605469 13.30132812 5.49210937 12.60265625 5.23046875 11.8828125 C4.88628906 10.97273437 4.54210937 10.06265625 4.1875 9.125 C3.85105469 8.22007812 3.51460937 7.31515625 3.16796875 6.3828125 C2.10350976 3.70574151 2.10350976 3.70574151 -1 2 C-3.80127043 1.79502899 -5.47454232 1.73727116 -8 3 C-10.125 2.5625 -10.125 2.5625 -12 2 C-12 2.66 -12 3.32 -12 4 C-13.32 3.67 -14.64 3.34 -16 3 C-10.88148037 -1.44503021 -6.5007935 -2.17020448 0 0 Z " fill="#192027" transform="translate(230,121)"/>
<path d="M0 0 C1.34615385 4.03846154 1.34615385 4.03846154 0 7 C-1.98689731 8.35278115 -3.98745218 9.68568305 -6 11 C-6.33 11.70125 -6.66 12.4025 -7 13.125 C-8 15 -8 15 -11.0625 16 C-12.031875 16.33 -13.00125 16.66 -14 17 C-14.96877057 19.03243548 -14.96877057 19.03243548 -15 21 C-16.32 20.67 -17.64 20.34 -19 20 C-12.8990701 13.07382354 -6.58695525 6.463192 0 0 Z " fill="#0B99EB" transform="translate(70,231)"/>
<path d="M0 0 C23.55430712 0 23.55430712 0 27.125 1.8125 C27.80820312 2.14894531 28.49140625 2.48539063 29.1953125 2.83203125 C31 4 31 4 33 7 C29.9168649 5.80100302 26.93720508 4.52299523 24 3 C24 3.66 24 4.32 24 5 C24.99 5.66 25.98 6.32 27 7 C23.7 7 20.4 7 17 7 C16.67 5.35 16.34 3.7 16 2 C10.72 1.67 5.44 1.34 0 1 C0 0.67 0 0.34 0 0 Z " fill="#F6CB2D" transform="translate(256,24)"/>
<path d="M0 0 C0 4.27840261 -2.28404432 5.82034457 -5 9 C-5.33 9.99 -5.66 10.98 -6 12 C-6.66 11.67 -7.32 11.34 -8 11 C-8 11.99 -8 12.98 -8 14 C-8 14.66 -8 15.32 -8 16 C-8.86367187 16.18691406 -9.72734375 16.37382812 -10.6171875 16.56640625 C-15.08631723 18.4603677 -17.16488212 21.1938215 -20.125 24.9375 C-26.33192826 32.62189608 -26.33192826 32.62189608 -30 35 C-28.47920927 31.49172085 -26.4004327 29.04728354 -23.8125 26.25 C-23.00425781 25.36828125 -22.19601563 24.4865625 -21.36328125 23.578125 C-20.58339844 22.72734375 -19.80351562 21.8765625 -19 21 C-17.82838939 19.67100886 -16.66126608 18.3380396 -15.5 17 C-4.61500175 4.5127707 -4.61500175 4.5127707 0 0 Z " fill="#121C25" transform="translate(213,125)"/>
<path d="M0 0 C6.65853659 1.4796748 6.65853659 1.4796748 8.3125 4 C8.6528125 4.99 8.6528125 4.99 9 6 C9.66 6.66 10.32 7.32 11 8 C11 7.01 11 6.02 11 5 C11.99 5 12.98 5 14 5 C16 8 16 8 15.875 10.9375 C15.69205306 14.12631023 15.69205306 14.12631023 18 16.375 C18.66 16.91125 19.32 17.4475 20 18 C19.67 18.66 19.34 19.32 19 20 C10.11328125 11.11328125 10.11328125 11.11328125 8.52978516 9.52587891 C7.10588755 8.10561717 5.66868509 6.69872887 4.23046875 5.29296875 C2 3 2 3 0 0 Z " fill="#E7B01B" transform="translate(108,193)"/>
<path d="M0 0 C6.7685324 -0.10152799 13.30324864 -0.03026944 20 1 C20 1.66 20 2.32 20 3 C20.556875 3.103125 21.11375 3.20625 21.6875 3.3125 C24.66723057 4.19836585 26.56852621 5.01642927 29 7 C30.02994813 9.67258336 30.48746915 12.15778346 31 15 C30.5875 14.62488281 30.175 14.24976563 29.75 13.86328125 C20.53671124 5.6988267 12.32049066 2.06162958 0 1 C0 0.67 0 0.34 0 0 Z " fill="#152236" transform="translate(264,21)"/>
<path d="M0 0 C0.99 0.33 1.98 0.66 3 1 C3 1.66 3 2.32 3 3 C4.32 3.33 5.64 3.66 7 4 C6.40361667 5.27450447 5.79752584 6.54446877 5.1875 7.8125 C4.85105469 8.52019531 4.51460938 9.22789062 4.16796875 9.95703125 C2.99354529 12.01129035 1.74371984 13.41616278 0 15 C-0.33 13.35 -0.66 11.7 -1 10 C-1.66 10 -2.32 10 -3 10 C-3 9.01 -3 8.02 -3 7 C-2.34 7 -1.68 7 -1 7 C-1.020625 6.030625 -1.04125 5.06125 -1.0625 4.0625 C-1 1 -1 1 0 0 Z " fill="#106EC4" transform="translate(291,280)"/>
<path d="M0 0 C3.36202939 1.42609159 5.23675579 3.14348515 7.5625 5.9375 C9.6269098 8.39732014 11.69358543 10.76368922 14 13 C13.67 13.66 13.34 14.32 13 15 C12.5875 14.525625 12.175 14.05125 11.75 13.5625 C9.817815 11.83733482 8.51807725 11.43415125 6 11 C6 10.34 6 9.68 6 9 C5.34 9 4.68 9 4 9 C4 8.34 4 7.68 4 7 C3.01 7.33 2.02 7.66 1 8 C0.67 7.01 0.34 6.02 0 5 C-2.31 6.65 -4.62 8.3 -7 10 C-5.33248852 6.05860922 -2.77289351 3.2107188 0 0 Z " fill="#24B8EA" transform="translate(222,149)"/>
<path d="M0 0 C6.12566914 2.49564298 9.39464301 7.10366577 12 13 C8.535 14.485 8.535 14.485 5 16 C5 13 5 10 5 7 C3.68 7.33 2.36 7.66 1 8 C1 7.34 1 6.68 1 6 C0.01 6 -0.98 6 -2 6 C-1.125 1.125 -1.125 1.125 0 0 Z M7 10 C6.67 10.66 6.34 11.32 6 12 C6.66 12 7.32 12 8 12 C7.67 11.34 7.34 10.68 7 10 Z " fill="#099BF6" transform="translate(115,240)"/>
<path d="M0 0 C2.44839588 3.67259383 4 6.54648201 4 11 C4.99 11.33 5.98 11.66 7 12 C7 12.99 7 13.98 7 15 C7.97648017 16.02297922 8.98131338 17.01904252 10 18 C10.4125 18.763125 10.825 19.52625 11.25 20.3125 C14.86166874 25.85899129 20.480372 29.4997481 26 33 C25.01 33.495 25.01 33.495 24 34 C12.35946479 28.77363725 5.77733447 18.69427155 0.84765625 7.34765625 C-0.08783693 4.75672813 -0.15619853 2.73347433 0 0 Z " fill="#E5940C" transform="translate(62,110)"/>
<path d="M0 0 C1.11375 0.4640625 1.11375 0.4640625 2.25 0.9375 C4.82522027 2.02907421 4.82522027 2.02907421 6.94921875 2.36328125 C11.76991507 3.85999268 15.25731902 8.87399981 17.9375 12.9375 C18.288125 13.618125 18.63875 14.29875 19 15 C18.01 16.485 18.01 16.485 17 18 C13.74305277 14.97569186 11.27649087 11.82125253 9 8 C9 7.01 9 6.02 9 5 C7.88625 5.37125 7.88625 5.37125 6.75 5.75 C4 6 4 6 1.6875 4.1875 C0 2 0 2 0 0 Z " fill="#21344E" transform="translate(295,7)"/>
<path d="M0 0 C18.48 0.33 36.96 0.66 56 1 C56 1.33 56 1.66 56 2 C39.83 2 23.66 2 7 2 C6.67 2.66 6.34 3.32 6 4 C3.03 3.505 3.03 3.505 0 3 C0 2.01 0 1.02 0 0 Z " fill="#102B47" transform="translate(216,306)"/>
<path d="M0 0 C2.64 0.66 5.28 1.32 8 2 C7.33333333 3.33333333 6.66666667 4.66666667 6 6 C5.67 6.70125 5.34 7.4025 5 8.125 C2.97880984 11.91473154 -0.48650102 13.70858762 -4 16 C-4.1875 13.625 -4.1875 13.625 -4 11 C-3.01 10.34 -2.02 9.68 -1 9 C0.97915731 5.23960111 1.07402651 4.29610605 0 0 Z " fill="#E7AD1B" transform="translate(136,198)"/>
<path d="M0 0 C3.36143418 1.12047806 4.57528834 2.49707183 7 5 C7.66 5.33 8.32 5.66 9 6 C11.0095568 8.93704456 12 10.39222485 12 14 C9 13 9 13 7 11 C5.01178687 10.60235737 3.01055661 10.26224651 1 10 C0 3.375 0 3.375 0 0 Z M4 5 C5 7 5 7 5 7 Z " fill="#09A1ED" transform="translate(247,181)"/>
<path d="M0 0 C0 0.66 0 1.32 0 2 C0.99 1.34 1.98 0.68 3 0 C4.32 0 5.64 0 7 0 C6.765625 1.89453125 6.765625 1.89453125 6 4 C4.109375 5.01171875 4.109375 5.01171875 1.75 5.6875 C0.94175781 5.9246875 0.13351562 6.161875 -0.69921875 6.40625 C-3.1209339 7.03120875 -5.52994892 7.60160467 -8 8 C-6.52980132 2.36423841 -6.52980132 2.36423841 -4 0.625 C-2 0 -2 0 0 0 Z " fill="#0B65BD" transform="translate(280,296)"/>
<path d="M0 0 C3.79974848 1.56832486 6.16765382 3.9520803 9.02734375 6.8671875 C9.49813858 7.3431839 9.96893341 7.8191803 10.45399475 8.30960083 C11.95335315 9.82670321 13.44584509 11.35032574 14.9375 12.875 C16.42640982 14.39167448 17.91680727 15.90680723 19.41029358 17.41897583 C20.76897664 18.79539529 22.12278503 20.17662159 23.47631836 21.55810547 C25.87669412 23.88069019 28.3566441 25.96154256 31 28 C30.01 28.33 29.02 28.66 28 29 C24.00920662 25.03384583 20.02164801 21.06447889 16.03710938 17.09204102 C14.67993134 15.73990523 13.321859 14.38866647 11.96289062 13.03833008 C10.01459127 11.10210109 8.06948531 9.16271454 6.125 7.22265625 C5.51253418 6.61535172 4.90006836 6.00804718 4.26904297 5.38233948 C2.82692511 3.94041592 1.41053404 2.47283441 0 1 C0 0.67 0 0.34 0 0 Z " fill="#001C46" transform="translate(107,228)"/>
<path d="M0 0 C7.26 0.33 14.52 0.66 22 1 C22 1.33 22 1.66 22 2 C20.39318359 2.07347656 20.39318359 2.07347656 18.75390625 2.1484375 C17.35674361 2.22345294 15.9596095 2.2990013 14.5625 2.375 C13.85544922 2.4059375 13.14839844 2.436875 12.41992188 2.46875 C10.60760812 2.57280629 8.80182012 2.77919892 7 3 C6.67 3.66 6.34 4.32 6 5 C4.14453125 5.5625 4.14453125 5.5625 1.8125 6 C-1.90716396 6.74868636 -5.42200638 7.71559203 -9 9 C-7.38216989 7.22038688 -6.14516309 6.06598322 -3.9375 5.0625 C-1.51116458 3.97101245 -1.51116458 3.97101245 0 0 Z " fill="#F8CE37" transform="translate(92,51)"/>
<path d="M0 0 C0.33 1.32 0.66 2.64 1 4 C-0.134375 4.5775 -1.26875 5.155 -2.4375 5.75 C-5.36062576 7.2961141 -5.36062576 7.2961141 -6.75 10.1875 C-6.8325 10.785625 -6.915 11.38375 -7 12 C-7.99 12.33 -8.98 12.66 -10 13 C-10 12.01 -10 11.02 -10 10 C-11.65 11.98 -13.3 13.96 -15 16 C-15 11.08347108 -11.30044459 8.39965635 -8 5 C-2.70095694 0 -2.70095694 0 0 0 Z " fill="#17B1F0" transform="translate(222,154)"/>
<path d="M0 0 C2.11391258 2.77648219 4.12112393 5.60034879 6.0625 8.5 C6.56910156 9.2528125 7.07570313 10.005625 7.59765625 10.78125 C8.8782097 12.80730672 9.97249368 14.83682881 11 17 C11.99 17 12.98 17 14 17 C14.28875 17.61875 14.5775 18.2375 14.875 18.875 C15.93720042 21.13325765 15.93720042 21.13325765 18 23 C14.48967912 23 13.27541002 22.01967025 10.6875 19.76171875 C5.56337243 14.41222446 0 7.57874341 0 0 Z " fill="#233043" transform="translate(0,294)"/>
<path d="M0 0 C6.90366486 4.73833575 12.64906022 10.41350467 18.5 16.375 C19.4178125 17.30183594 20.335625 18.22867188 21.28125 19.18359375 C23.52548985 21.4512111 25.76489422 23.72338511 28 26 C25 26 25 26 23.28588867 24.59472656 C22.6694751 23.94987305 22.05306152 23.30501953 21.41796875 22.640625 C20.73283203 21.93679687 20.04769531 21.23296875 19.34179688 20.5078125 C18.63087891 19.76273438 17.91996094 19.01765625 17.1875 18.25 C12.69953712 13.56762767 8.51882845 9.42547973 3 6 C0 2.6 0 2.6 0 0 Z " fill="#31B0E5" transform="translate(102,225)"/>
<path d="M0 0 C-0.33 2.64 -0.66 5.28 -1 8 C-0.01 7.67 0.98 7.34 2 7 C1.95875 8.2375 1.9175 9.475 1.875 10.75 C1.86341709 14.01637962 2.1431298 16.2146947 4 19 C-0.36252597 14.99119235 -3.53611725 11.32449307 -4.375 5.3125 C-3.98653934 2.9169926 -2.89764881 0 0 0 Z " fill="#1D83D5" transform="translate(26,277)"/>
<path d="M0 0 C3.63 0 7.26 0 11 0 C10.67 0.66 10.34 1.32 10 2 C9.01 2 8.02 2 7 2 C6.773125 2.639375 6.54625 3.27875 6.3125 3.9375 C5 6 5 6 2.6875 6.75 C0.10312972 6.99040654 -2.40629862 7.07410575 -5 7 C-4.75 5.125 -4.75 5.125 -4 3 C-1.9375 1.75 -1.9375 1.75 0 1 C0 0.67 0 0.34 0 0 Z " fill="#F1711E" transform="translate(92,56)"/>
<path d="M0 0 C4 0 4 0 6 1.125 C8.02952448 2.29314478 8.02952448 2.29314478 10.25 1.125 C11.11625 0.568125 11.11625 0.568125 12 0 C11.39009109 3.55780196 10.4216319 6.6828589 9 10 C7.86800647 9.0919838 6.74467637 8.17316174 5.625 7.25 C4.99851562 6.73953125 4.37203125 6.2290625 3.7265625 5.703125 C1.91687682 3.91800519 0.99882545 2.32050356 0 0 Z " fill="#F0BA22" transform="translate(268,160)"/>
<path d="M0 0 C3.86328627 1.5847358 6.28876923 4.05956887 9.203125 7.0078125 C9.6857782 7.49329559 10.1684314 7.97877869 10.66571045 8.47897339 C12.19858562 10.02299866 13.72434004 11.57384824 15.25 13.125 C16.29120361 14.17624009 17.33286541 15.22702657 18.375 16.27734375 C20.92199464 18.84633004 23.46265177 21.42148161 26 24 C23 24 23 24 21.40942383 22.73413086 C20.84763428 22.15026611 20.28584473 21.56640137 19.70703125 20.96484375 C19.07998291 20.32313232 18.45293457 19.6814209 17.80688477 19.02026367 C17.14873779 18.33295166 16.49059082 17.64563965 15.8125 16.9375 C11.12029077 12.12236064 6.45790816 7.43410405 1.22265625 3.19921875 C0.81917969 2.80347656 0.41570312 2.40773437 0 2 C0 1.34 0 0.68 0 0 Z " fill="#1A1B1D" transform="translate(99,188)"/>
<path d="M0 0 C0 3 0 3 -2.59765625 5.85546875 C-3.74577168 6.9732072 -4.90116006 8.08350823 -6.0625 9.1875 C-10.48828579 13.4773565 -14.70108906 17.7684838 -18.53515625 22.609375 C-20.29926232 24.2840997 -21.65873539 24.49323017 -24 25 C-19.18132753 19.19108254 -13.98743592 13.86934448 -8.625 8.5625 C-7.79355469 7.73556641 -6.96210937 6.90863281 -6.10546875 6.05664062 C-4.0725896 4.03544469 -2.03740037 2.01663665 0 0 Z " fill="#2E9EE2" transform="translate(50,252)"/>
<path d="M0 0 C-1.94794074 0.98908743 -3.89087779 1.95252621 -5.89453125 2.82421875 C-11.36060016 5.28450638 -14.98981975 8.59964005 -19 13 C-19.66 13.66 -20.32 14.32 -21 15 C-20.77139942 13.53815942 -20.51629608 12.08044581 -20.25 10.625 C-20.11078125 9.81289063 -19.9715625 9.00078125 -19.828125 8.1640625 C-19 6 -19 6 -17.07421875 4.7734375 C-16.38972656 4.51820312 -15.70523437 4.26296875 -15 4 C-14.195625 3.67 -13.39125 3.34 -12.5625 3 C-11.716875 2.67 -10.87125 2.34 -10 2 C-9.175 1.62875 -8.35 1.2575 -7.5 0.875 C-4.83747934 -0.05688223 -2.79884788 -0.15993416 0 0 Z " fill="#1C2632" transform="translate(45,22)"/>
<path d="M0 0 C0.99 0.33 1.98 0.66 3 1 C1.43181728 6.452999 -0.03810217 10.76486783 -4 15 C-4.92718689 11.91863039 -5.14268368 10.38328753 -4.00390625 7.32421875 C-3.52824219 6.45410156 -3.05257813 5.58398438 -2.5625 4.6875 C-2.08941406 3.80449219 -1.61632812 2.92148437 -1.12890625 2.01171875 C-0.75636719 1.34785156 -0.38382812 0.68398438 0 0 Z " fill="#1E3147" transform="translate(317,292)"/>
<path d="M0 0 C1.45002516 4.77171399 -0.03357399 7.95976731 -2.125 12.375 C-2.41375 12.91125 -2.7025 13.4475 -3 14 C-3 12.68 -3 11.36 -3 10 C-6.54518884 11.39759905 -6.54518884 11.39759905 -10 13 C-8.48446596 9.52224821 -6.4226544 7.0442016 -3.875 4.25 C-3.15054688 3.45078125 -2.42609375 2.6515625 -1.6796875 1.828125 C-0.84824219 0.92320312 -0.84824219 0.92320312 0 0 Z " fill="#1CABE6" transform="translate(193,184)"/>
<path d="M0 0 C0.66 0.33 1.32 0.66 2 1 C2 1.66 2 2.32 2 3 C2.66 3.33 3.32 3.66 4 4 C-5.22551253 15.70615034 -5.22551253 15.70615034 -11 20 C-9.84826645 17.53199953 -8.95216435 15.95216435 -7 14 C-6.3574765 11.93125966 -6.3574765 11.93125966 -6 10 C-5.34 10 -4.68 10 -4 10 C-3.67 9.34 -3.34 8.68 -3 8 C-1.68671343 6.64691687 -0.35500919 5.31129922 1 4 C0.34 4 -0.32 4 -1 4 C-1.33 3.01 -1.66 2.02 -2 1 C-1.34 0.67 -0.68 0.34 0 0 Z " fill="#EECD4B" transform="translate(171,164)"/>
<path d="M0 0 C3.91939465 3.80411834 7.49102731 7.81576108 11 12 C10.01 12.495 10.01 12.495 9 13 C8.01 12.01 7.02 11.02 6 10 C4.02 10.99 4.02 10.99 2 12 C2 10.35 2 8.7 2 7 C1.01 7.495 1.01 7.495 0 8 C0 5.36 0 2.72 0 0 Z " fill="#08A8EC" transform="translate(232,161)"/>
<path d="M0 0 C0.99 0.33 1.98 0.66 3 1 C2.01 2.98 1.02 4.96 0 7 C-0.66 7 -1.32 7 -2 7 C-2 8.65 -2 10.3 -2 12 C-2.66 11.67 -3.32 11.34 -4 11 C-4 10.34 -4 9.68 -4 9 C-4.66 8.67 -5.32 8.34 -6 8 C-6 6.68 -6 5.36 -6 4 C-3.1875 1.6875 -3.1875 1.6875 0 0 Z " fill="#F4BD23" transform="translate(270,148)"/>
<path d="M0 0 C0.515625 0.37125 1.03125 0.7425 1.5625 1.125 C-0.4375 3.125 -2.4375 5.125 -4.4375 7.125 C-5.4275 7.125 -6.4175 7.125 -7.4375 7.125 C-9.4375 4.125 -9.4375 4.125 -9.4375 1.125 C-3.0375 -1.09038462 -3.0375 -1.09038462 0 0 Z " fill="#F5C934" transform="translate(47.4375,22.875)"/>
<path d="M0 0 C4.60140767 1.92422503 7.40519631 5.34520706 10.78125 8.90625 C12.83491972 10.84422002 14.49608019 11.79639906 17 13 C18.625 15.5 18.625 15.5 20 18 C20.66 18.66 21.32 19.32 22 20 C19 20 19 20 16.9152832 18.27172852 C16.13499756 17.48209717 15.35471191 16.69246582 14.55078125 15.87890625 C13.70322266 15.02619141 12.85566406 14.17347656 11.98242188 13.29492188 C10.66081055 11.94237305 10.66081055 11.94237305 9.3125 10.5625 C8.41982422 9.66466797 7.52714844 8.76683594 6.60742188 7.84179688 C0 1.15361201 0 1.15361201 0 0 Z " fill="#00113A" transform="translate(138,258)"/>
<path d="M0 0 C0 3 0 3 -1 5 C-0.34 5 0.32 5 1 5 C1.66 6.32 2.32 7.64 3 9 C2 10 2 10 -0.5625 10.0625 C-1.366875 10.041875 -2.17125 10.02125 -3 10 C-3.33 9.34 -3.66 8.68 -4 8 C-6.97 10.475 -6.97 10.475 -10 13 C-8.48446596 9.52224821 -6.4226544 7.0442016 -3.875 4.25 C-3.15054688 3.45078125 -2.42609375 2.6515625 -1.6796875 1.828125 C-0.84824219 0.92320312 -0.84824219 0.92320312 0 0 Z " fill="#1EA5E1" transform="translate(181,198)"/>
<path d="M0 0 C7.81290993 2.19738092 13.18681764 8.63607086 17.28515625 15.30078125 C17.52105469 15.86152344 17.75695312 16.42226562 18 17 C17.67 17.66 17.34 18.32 17 19 C16.61328125 18.46890625 16.2265625 17.9378125 15.828125 17.390625 C11.4602896 10.53252026 11.4602896 10.53252026 4.9375 6.625 C3 6 3 6 1.25 2.9375 C0.8375 1.968125 0.425 0.99875 0 0 Z " fill="#DA720A" transform="translate(131,62)"/>
<path d="M0 0 C0.82078795 3.11105109 1.34034484 5.76672403 1 9 C0.01 9.66 -0.98 10.32 -2 11 C-2 10.01 -2 9.02 -2 8 C-2.94875 8.639375 -3.8975 9.27875 -4.875 9.9375 C-8 12 -8 12 -10 13 C-8.48446596 9.52224821 -6.4226544 7.0442016 -3.875 4.25 C-3.15054688 3.45078125 -2.42609375 2.6515625 -1.6796875 1.828125 C-0.84824219 0.92320312 -0.84824219 0.92320312 0 0 Z " fill="#1DB1EA" transform="translate(204,171)"/>
<path d="M0 0 C1.98 0 3.96 0 6 0 C6 3.96679333 4.720685 5.20374041 2 8 C0.68 8 -0.64 8 -2 8 C-1.67 7.4225 -1.34 6.845 -1 6.25 C0.27075898 3.80116138 0.27075898 3.80116138 0 0 Z " fill="#1A314B" transform="translate(306,306)"/>
<path d="M0 0 C3.42931954 3.7559214 4.56429083 8.23466745 6 13 C4.68 13 3.36 13 2 13 C2 11.68 2 10.36 2 9 C1.34 8.67 0.68 8.34 0 8 C-0.95067299 4.71585695 -1.10102197 3.30306592 0 0 Z " fill="#1D3048" transform="translate(315,24)"/>
<path d="M0 0 C0.66 0.33 1.32 0.66 2 1 C2.66 1 3.32 1 4 1 C4 1.66 4 2.32 4 3 C7.84841348 4.18031238 11.758279 4.33235351 15.75 4.5625 C16.44738281 4.60568359 17.14476562 4.64886719 17.86328125 4.69335938 C19.57531922 4.79889596 21.28763561 4.8998991 23 5 C23 5.33 23 5.66 23 6 C19.75047252 6.14546783 16.50178287 6.2341168 13.25 6.3125 C12.32960937 6.35439453 11.40921875 6.39628906 10.4609375 6.43945312 C3.59101089 6.56390832 3.59101089 6.56390832 0.359375 3.48046875 C-0.08921875 2.66191406 -0.5378125 1.84335937 -1 1 C-0.67 0.67 -0.34 0.34 0 0 Z " fill="#0669C0" transform="translate(216,298)"/>
<path d="M0 0 C5.24972347 4.10037573 9.20962911 8.52964787 13 14 C12.01 14.495 12.01 14.495 11 15 C10.484375 14.2575 9.96875 13.515 9.4375 12.75 C6.52465608 9.46371455 3.87566094 8.01236241 0 6 C0.33 5.01 0.66 4.02 1 3 C0.67 2.01 0.34 1.02 0 0 Z " fill="#131E2C" transform="translate(285,183)"/>
<path d="M0 0 C4.52892751 1.5096425 5.8048158 4.93179174 8 9 C9.96537579 13.46676317 10.12992877 16.25429917 9 21 C8.67 21 8.34 21 8 21 C7.85304688 20.03900391 7.85304688 20.03900391 7.703125 19.05859375 C6.68613846 13.17585265 5.21249488 9.01952324 2 4 C1.3197633 2.67353844 0.64507739 1.34391123 0 0 Z " fill="#E7DA65" transform="translate(289,31)"/>
<path d="M0 0 C1.29640378 0.59393382 2.58698839 1.20057989 3.875 1.8125 C4.59429687 2.14894531 5.31359375 2.48539063 6.0546875 2.83203125 C8 4 8 4 10 7 C6.9168649 5.80100302 3.93720508 4.52299523 1 3 C1 3.66 1 4.32 1 5 C1.99 5.66 2.98 6.32 4 7 C2.02 7 0.04 7 -2 7 C-2.33 6.01 -2.66 5.02 -3 4 C-2.67 3.34 -2.34 2.68 -2 2 C-1.34 2 -0.68 2 0 2 C0 1.34 0 0.68 0 0 Z " fill="#F2D44D" transform="translate(279,24)"/>
<path d="M0 0 C2.78637633 4.1795645 1.79562512 6.14668677 1 11 C-0.98 10.34 -2.96 9.68 -5 9 C-5 8.01 -5 7.02 -5 6 C-2 4 -2 4 -1 4 C-0.67 2.68 -0.34 1.36 0 0 Z " fill="#0980D1" transform="translate(189,260)"/>
<path d="M0 0 C2 0 2 0 3.625 1.5625 C5.45512039 4.80680433 5.21131282 7.33724439 5 11 C4.01 11.33 3.02 11.66 2 12 C2 11.34 2 10.68 2 10 C1.34 9.67 0.68 9.34 0 9 C0.185625 8.2575 0.37125 7.515 0.5625 6.75 C0.99203108 4.05009037 0.85122974 2.55368923 0 0 Z " fill="#077DD0" transform="translate(292,228)"/>
<path d="M0 0 C-0.99 1.98 -1.98 3.96 -3 6 C-4.32 4.68 -5.64 3.36 -7 2 C-8.65 2.66 -10.3 3.32 -12 4 C-11 1 -11 1 -9.375 -0.25 C-6.04805845 -1.30061312 -3.37991551 -0.64998375 0 0 Z " fill="#EAA922" transform="translate(46,213)"/>
<path d="M0 0 C0.33 1.98 0.66 3.96 1 6 C0.34 6 -0.32 6 -1 6 C-1.33 6.99 -1.66 7.98 -2 9 C-2.66 7.68 -3.32 6.36 -4 5 C-4.66 5 -5.32 5 -6 5 C-6.33 4.01 -6.66 3.02 -7 2 C-2.25 0 -2.25 0 0 0 Z " fill="#EEB921" transform="translate(284,168)"/>
<path d="M0 0 C4.69159716 3.38772897 9.0299782 6.78185183 13 11 C12.67 11.66 12.34 12.32 12 13 C11.278125 12.175 10.55625 11.35 9.8125 10.5 C7.27082634 7.75592194 7.27082634 7.75592194 4.1875 7.6875 C3.465625 7.790625 2.74375 7.89375 2 8 C1.34 5.36 0.68 2.72 0 0 Z " fill="#12223D" transform="translate(234,127)"/>
<path d="M0 0 C0 3.73928499 -0.91959602 4.40902253 -3.375 7.125 C-4.31472656 8.18074219 -4.31472656 8.18074219 -5.2734375 9.2578125 C-7 11 -7 11 -9 12 C-9.65213292 14.02463255 -9.65213292 14.02463255 -10 16 C-11.32 15.67 -12.64 15.34 -14 15 C-4.58997722 4.44191344 -4.58997722 4.44191344 0 0 Z " fill="#2FAAE5" transform="translate(65,236)"/>
<path d="M0 0 C2 1 4 2 6 3 C6.99 2.67 7.98 2.34 9 2 C9.33 2.66 9.66 3.32 10 4 C11.64363134 4.72159424 13.31050386 5.39351421 15 6 C12 8 12 8 9.1875 7.4375 C5.41404186 5.73574437 3.02652726 3.81034674 0 1 C0 0.67 0 0.34 0 0 Z " fill="#1E83D8" transform="translate(30,296)"/>
<path d="M0 0 C0.33 0.99 0.66 1.98 1 3 C0.52949219 3.39832031 0.05898437 3.79664063 -0.42578125 4.20703125 C-1.04839844 4.73683594 -1.67101562 5.26664063 -2.3125 5.8125 C-2.92738281 6.33457031 -3.54226562 6.85664063 -4.17578125 7.39453125 C-4.77777344 7.92433594 -5.37976563 8.45414063 -6 9 C-6.85658203 9.74830078 -6.85658203 9.74830078 -7.73046875 10.51171875 C-9.3244903 12.05437033 -9.3244903 12.05437033 -9 15 C-9.99 14.01 -10.98 13.02 -12 12 C-8.04 8.04 -4.08 4.08 0 0 Z " fill="#0E2F5C" transform="translate(70,198)"/>
<path d="M0 0 C6.2923165 1.91968978 9.18485314 3.63494972 13 9 C12.01 9.495 12.01 9.495 11 10 C9.14453125 7.70507812 9.14453125 7.70507812 7.2890625 5.41015625 C6.0333609 3.86733563 6.0333609 3.86733563 4 3 C3.67 3.99 3.34 4.98 3 6 C2.67 5.34 2.34 4.68 2 4 C1.34 4 0.68 4 0 4 C-0.33 3.01 -0.66 2.02 -1 1 C-0.67 0.67 -0.34 0.34 0 0 Z " fill="#122936" transform="translate(266,166)"/>
<path d="M0 0 C0.66 0.33 1.32 0.66 2 1 C-1.63 4.96 -5.26 8.92 -9 13 C-9 9.83214131 -8.44444825 8.71896141 -7 6 C-6.67 5.01 -6.34 4.02 -6 3 C-4.0625 2.4375 -4.0625 2.4375 -2 2 C-1.34 1.34 -0.68 0.68 0 0 Z " fill="#F0DA57" transform="translate(199,138)"/>
<path d="M0 0 C0 3.96130371 -1.34877125 4.82914401 -4 7.6875 C-4.7425 8.49574219 -5.485 9.30398437 -6.25 10.13671875 C-6.8275 10.75160156 -7.405 11.36648437 -8 12 C-8 10.33333333 -8 8.66666667 -8 7 C-8.33 6.34 -8.66 5.68 -9 5 C-7.88625 4.54625 -6.7725 4.0925 -5.625 3.625 C-2.03800992 2.27534014 -2.03800992 2.27534014 0 0 Z " fill="#021F45" transform="translate(167,212)"/>
<path d="M0 0 C1.32 0 2.64 0 4 0 C4 1.32 4 2.64 4 4 C4.66 4.33 5.32 4.66 6 5 C3.39417629 5.93065133 2.35801776 6.14917407 -0.25 5.0625 C-0.8275 4.711875 -1.405 4.36125 -2 4 C-1.34 2.68 -0.68 1.36 0 0 Z " fill="#0A9CE6" transform="translate(186,194)"/>
<path d="M0 0 C1.32 0.99 2.64 1.98 4 3 C1.03 5.475 1.03 5.475 -2 8 C-3 7 -3 7 -3.0625 3.9375 C-3.041875 2.968125 -3.02125 1.99875 -3 1 C-1 2 -1 2 0 3 C0 2.01 0 1.02 0 0 Z " fill="#EAB320" transform="translate(147,191)"/>
<path d="M0 0 C1.485 0.99 1.485 0.99 3 2 C3.99 2.33 4.98 2.66 6 3 C5.67 3.99 5.34 4.98 5 6 C5.99 5.67 6.98 5.34 8 5 C7.34 6.32 6.68 7.64 6 9 C3.69 6.69 1.38 4.38 -1 2 C-0.67 1.34 -0.34 0.68 0 0 Z M5 1 C8 2 8 2 8 2 Z " fill="#067FD2" transform="translate(174,256)"/>
<path d="M0 0 C0.66 0.33 1.32 0.66 2 1 C0.16172132 4.15133488 -1.75972706 7.11964908 -4 10 C-4 9.34 -4 8.68 -4 8 C-4.66 8 -5.32 8 -6 8 C-6 8.66 -6 9.32 -6 10 C-6.66 9.67 -7.32 9.34 -8 9 C-7.34 8.01 -6.68 7.02 -6 6 C-5.34 6 -4.68 6 -4 6 C-3.71125 5.38125 -3.4225 4.7625 -3.125 4.125 C-2 2 -2 2 0 0 Z " fill="#23AEE4" transform="translate(79,221)"/>
<path d="M0 0 C0 3.96130371 -1.34877125 4.82914401 -4 7.6875 C-4.7425 8.49574219 -5.485 9.30398437 -6.25 10.13671875 C-6.8275 10.75160156 -7.405 11.36648437 -8 12 C-8 9 -8 9 -6 7 C-5.35232207 4.42938689 -5.35232207 4.42938689 -5 2 C-4.360625 1.855625 -3.72125 1.71125 -3.0625 1.5625 C-1.02454854 1.18992819 -1.02454854 1.18992819 0 0 Z " fill="#002347" transform="translate(217,153)"/>
<path d="M0 0 C4.67461851 -0.32613618 7.16674383 0.29417212 11 3 C9.4375 4.25 9.4375 4.25 7 5 C4.42998985 3.93237266 2.3469597 2.53455057 0 1 C0 0.67 0 0.34 0 0 Z " fill="#213246" transform="translate(20,320)"/>
<path d="M0 0 C6.52307692 -0.36923077 6.52307692 -0.36923077 8.9375 1.5 C9.288125 1.995 9.63875 2.49 10 3 C8.8553125 2.9690625 8.8553125 2.9690625 7.6875 2.9375 C4.89814214 2.87057159 4.89814214 2.87057159 2 4 C1.34 3.67 0.68 3.34 0 3 C0 2.01 0 1.02 0 0 Z " fill="#E66D14" transform="translate(121,59)"/>
<path d="M0 0 C0.66 0 1.32 0 2 0 C2 0.66 2 1.32 2 2 C2.99 2 3.98 2 5 2 C5.28875 2.61875 5.5775 3.2375 5.875 3.875 C6.93720042 6.13325765 6.93720042 6.13325765 9 8 C4.66314164 8 3.0556673 5.91985986 0 3 C0 2.01 0 1.02 0 0 Z " fill="#313E51" transform="translate(9,309)"/>
<path d="M0 0 C1.76462683 3.08809695 2 4.23312136 2 8 C1.01 8 0.02 8 -1 8 C-1 8.66 -1 9.32 -1 10 C-1.66 10 -2.32 10 -3 10 C-3 9.01 -3 8.02 -3 7 C-2.34 7 -1.68 7 -1 7 C-1.020625 6.030625 -1.04125 5.06125 -1.0625 4.0625 C-1 1 -1 1 0 0 Z " fill="#0C68BC" transform="translate(291,280)"/>
<path d="M0 0 C3.5786304 1.65167557 6.74820188 3.78286492 10 6 C9.01 6.495 9.01 6.495 8 7 C7.401875 6.690625 6.80375 6.38125 6.1875 6.0625 C3.6236061 4.81718011 1.81458835 4.84363398 -1 5 C-0.67 3.35 -0.34 1.7 0 0 Z " fill="#0A2548" transform="translate(118,209)"/>
<path d="M0 0 C0.66 0.33 1.32 0.66 2 1 C4.09821215 0.60061233 4.09821215 0.60061233 6 0 C2.83047153 3.26008643 -0.39937989 6.22237877 -4 9 C-3.71125 8.443125 -3.4225 7.88625 -3.125 7.3125 C-1.9586747 4.91505355 -0.9660119 2.48403061 0 0 Z " fill="#FED245" transform="translate(75,61)"/>
<path d="M0 0 C0.763125 0.20625 1.52625 0.4125 2.3125 0.625 C-0.11547311 3.05297311 -2.8174269 4.7532132 -5.6875 6.625 C-5.875 4.25 -5.875 4.25 -5.6875 1.625 C-2.6875 -0.375 -2.6875 -0.375 0 0 Z " fill="#DCAA24" transform="translate(137.6875,207.375)"/>
<path d="M0 0 C0.99 0.33 1.98 0.66 3 1 C3.33 3.31 3.66 5.62 4 8 C2.35 6.68 0.7 5.36 -1 4 C-0.67 2.68 -0.34 1.36 0 0 Z M4 1 C4.66 1.66 5.32 2.32 6 3 C5.34 3 4.68 3 4 3 C4 2.34 4 1.68 4 1 Z " fill="#EEBE24" transform="translate(258,145)"/>
<path d="M0 0 C0.33 0.99 0.66 1.98 1 3 C-0.9375 5.6875 -0.9375 5.6875 -3 8 C-3.12375 7.360625 -3.2475 6.72125 -3.375 6.0625 C-3.684375 5.0415625 -3.684375 5.0415625 -4 4 C-4.66 3.67 -5.32 3.34 -6 3 C-5.34 2.34 -4.68 1.68 -4 1 C-3.34 1 -2.68 1 -2 1 C-1.34 0.67 -0.68 0.34 0 0 Z " fill="#1C3C5B" transform="translate(9,20)"/>
<path d="M0 0 C2.3125 0.1875 2.3125 0.1875 5 1 C6.6875 3.4375 6.6875 3.4375 8 6 C8.66 6.66 9.32 7.32 10 8 C7 8 7 8 5.17578125 6.50390625 C4.56089844 5.86324219 3.94601563 5.22257812 3.3125 4.5625 C2.68988281 3.92441406 2.06726563 3.28632813 1.42578125 2.62890625 C0 1 0 1 0 0 Z " fill="#011D45" transform="translate(150,270)"/>
<path d="M0 0 C0.99 0.33 1.98 0.66 3 1 C1.88121617 2.17262904 0.75476949 3.33795138 -0.375 4.5 C-1.00148438 5.1496875 -1.62796875 5.799375 -2.2734375 6.46875 C-4 8 -4 8 -6 8 C-5.6875 6.125 -5.6875 6.125 -5 4 C-4.01 3.34 -3.02 2.68 -2 2 C-1.34 1.34 -0.68 0.68 0 0 Z " fill="#0F2F5A" transform="translate(78,217)"/>
<path d="M0 0 C0 3 0 3 -2.5 5.6875 C-3.325 6.450625 -4.15 7.21375 -5 8 C-5.99 7.34 -6.98 6.68 -8 6 C-7.67 5.01 -7.34 4.02 -7 3 C-5.68 3 -4.36 3 -3 3 C-1.2488427 1.5833253 -1.2488427 1.5833253 0 0 Z " fill="#E6C241" transform="translate(137,209)"/>
<path d="M0 0 C0.71484375 1.734375 0.71484375 1.734375 1 4 C-0.43359375 6.140625 -0.43359375 6.140625 -2.4375 8.25 C-3.09621094 8.95640625 -3.75492188 9.6628125 -4.43359375 10.390625 C-4.95050781 10.92171875 -5.46742188 11.4528125 -6 12 C-6 11.01 -6 10.02 -6 9 C-5 8 -4 7 -3 6 C-2.28552357 3.89667109 -2.28552357 3.89667109 -2 2 C-1.34 2 -0.68 2 0 2 C0 1.34 0 0.68 0 0 Z " fill="#EAD253" transform="translate(167,172)"/>
<path d="M0 0 C3.875 1.75 3.875 1.75 5 4 C7.02463255 4.65213292 7.02463255 4.65213292 9 5 C9 6.65 9 8.3 9 10 C5.06451569 6.93906776 2.31883213 4.50884026 0 0 Z " fill="#EAC31F" transform="translate(245,134)"/>
<path d="M0 0 C1.9375 0.3125 1.9375 0.3125 4 1 C4.33 1.99 4.66 2.98 5 4 C7.00016466 5.20882096 7.00016466 5.20882096 9 6 C9 6.99 9 7.98 9 9 C5.99390037 7.99796679 4.93823179 7.39971554 3 5 C3 4.01 3 3.02 3 2 C2.01 2 1.02 2 0 2 C0 1.34 0 0.68 0 0 Z " fill="#0B2848" transform="translate(11,309)"/>
<path d="M0 0 C0 3.58912412 -0.66436554 4.10857029 -3 6.6875 C-3.556875 7.31011719 -4.11375 7.93273437 -4.6875 8.57421875 C-5.120625 9.04472656 -5.55375 9.51523438 -6 10 C-6 5.96776894 -4.35870974 4.19119553 -2 1 C-1.34 0.67 -0.68 0.34 0 0 Z " fill="#EA980C" transform="translate(145,128)"/>
<path d="M0 0 C0.99 0 1.98 0 3 0 C3 0.66 3 1.32 3 2 C3.99 2.66 4.98 3.32 6 4 C4.02 4.66 2.04 5.32 0 6 C0 5.34 0 4.68 0 4 C-0.66 3.67 -1.32 3.34 -2 3 C-1.34 2.01 -0.68 1.02 0 0 Z " fill="#0E2E5D" transform="translate(35,18)"/>
<path d="M0 0 C1.04449911 3.13349732 0.93423645 3.98968256 0 7 C-0.99 7 -1.98 7 -3 7 C-2.67 6.34 -2.34 5.68 -2 5 C-2.66 4.67 -3.32 4.34 -4 4 C-2.68 2.68 -1.36 1.36 0 0 Z " fill="#1DAAF4" transform="translate(70,231)"/>
<path d="M0 0 C1 3 1 3 -0.25 5.625 C-2 8 -2 8 -5 9 C-3.90931332 5.22454612 -3.0916909 2.52956528 0 0 Z " fill="#0796E0" transform="translate(177,205)"/>
<path d="M0 0 C1.65 0.33 3.3 0.66 5 1 C5 1.66 5 2.32 5 3 C3.02 3.66 1.04 4.32 -1 5 C-0.67 3.35 -0.34 1.7 0 0 Z " fill="#EEAF28" transform="translate(81,178)"/>
<path d="M0 0 C0.99 0.66 1.98 1.32 3 2 C2.67 3.98 2.34 5.96 2 8 C1.67 7.01 1.34 6.02 1 5 C0.01 4.67 -0.98 4.34 -2 4 C-2 3.01 -2 2.02 -2 1 C-1.34 0.67 -0.68 0.34 0 0 Z " fill="#EBC133" transform="translate(187,145)"/>
<path d="M0 0 C2.475 0.99 2.475 0.99 5 2 C2.82575883 4.50037734 1.26954202 5.43628586 -2 6 C-1.34 4.02 -0.68 2.04 0 0 Z " fill="#163658" transform="translate(16,9)"/>
<path d="M0 0 C1.32 0 2.64 0 4 0 C4 1.65 4 3.3 4 5 C2.02 5.99 0.04 6.98 -2 8 C-1.67 7.4225 -1.34 6.845 -1 6.25 C0.27075898 3.80116138 0.27075898 3.80116138 0 0 Z " fill="#0B375B" transform="translate(216,148)"/>
<path d="M0 0 C1.65 1.32 3.3 2.64 5 4 C0.125 7 0.125 7 -1 7 C-0.67 4.69 -0.34 2.38 0 0 Z " fill="#1D3350" transform="translate(1,26)"/>
<path d="M0 0 C2 1 2 1 5 3 C5 3.66 5 4.32 5 5 C3.25 5.6875 3.25 5.6875 1 6 C-1.25 4.5625 -1.25 4.5625 -3 3 C-2.01 2.01 -1.02 1.02 0 0 Z " fill="#163757" transform="translate(283,0)"/>
<path d="M0 0 C1.32 0 2.64 0 4 0 C2.60667426 3.36720387 1.0210714 4.9859524 -2 7 C-1.34 4.69 -0.68 2.38 0 0 Z " fill="#DCA612" transform="translate(26,233)"/>
<path d="M0 0 C0.33 1.32 0.66 2.64 1 4 C-0.1446875 4.680625 -0.1446875 4.680625 -1.3125 5.375 C-3.23632814 6.53824492 -5.12941224 7.7529415 -7 9 C-5.44499019 5.18315774 -2.96404505 2.80804268 0 0 Z " fill="#29A1E0" transform="translate(158,225)"/>
<path d="M0 0 C2.1875 0.3125 2.1875 0.3125 4 1 C2 4 2 4 -0.125 4.6875 C-0.74375 4.790625 -1.3625 4.89375 -2 5 C-2.33 4.34 -2.66 3.68 -3 3 C-1.75 1.4375 -1.75 1.4375 0 0 Z " fill="#F1BB20" transform="translate(181,153)"/>
<path d="M0 0 C0.66 0.33 1.32 0.66 2 1 C0.54744301 4.82946843 -1.42895561 6.12050295 -5 8 C-3.8141763 4.62496331 -2.72426311 2.35277269 0 0 Z " fill="#102B5C" transform="translate(200,141)"/>
<path d="M0 0 C0 0.66 0 1.32 0 2 C-2.5 3.625 -2.5 3.625 -5 5 C-6.32 4.01 -7.64 3.02 -9 2 C-3.375 0 -3.375 0 0 0 Z " fill="#F3CD2F" transform="translate(134,54)"/>
<path d="M0 0 C-1 1 -1 1 -3.06640625 1.09765625 C-3.89011719 1.08605469 -4.71382812 1.07445312 -5.5625 1.0625 C-6.38878906 1.05347656 -7.21507812 1.04445313 -8.06640625 1.03515625 C-8.70449219 1.02355469 -9.34257813 1.01195312 -10 1 C-6.54366026 -2.45633974 -4.11562231 -2.49877069 0 0 Z " fill="#EEDB53" transform="translate(49,24)"/>
<path d="M0 0 C0.99 0 1.98 0 3 0 C3 0.66 3 1.32 3 2 C3.99 2 4.98 2 6 2 C6 2.66 6 3.32 6 4 C4.02 4 2.04 4 0 4 C0 2.66666667 0 1.33333333 0 0 Z " fill="#08213F" transform="translate(30,322)"/>
<path d="M0 0 C0.99 0.33 1.98 0.66 3 1 C2.25 6.75 2.25 6.75 0 9 C0 6.03 0 3.06 0 0 Z " fill="#ECA422" transform="translate(23,231)"/>
<path d="M0 0 C0.66 0 1.32 0 2 0 C1.69381595 3.67420866 1.24228216 4.78135513 -1.5625 7.3125 C-2.366875 7.869375 -3.17125 8.42625 -4 9 C-2.92598892 6.08482708 -2.22189824 4.22189824 0 2 C0 1.34 0 0.68 0 0 Z " fill="#EABA20" transform="translate(163,174)"/>
<path d="M0 0 C2.97 0.495 2.97 0.495 6 1 C3.63707344 3.52588702 2.33537489 4.88820837 -1 6 C-0.67 4.02 -0.34 2.04 0 0 Z " fill="#253448" transform="translate(299,315)"/>
<path d="M0 0 C2.64 1.98 5.28 3.96 8 6 C7.34 6.66 6.68 7.32 6 8 C1.125 3.375 1.125 3.375 0 0 Z " fill="#26B1EB" transform="translate(102,225)"/>
<path d="M0 0 C0 0.99 0 1.98 0 3 C-2.5 5.1875 -2.5 5.1875 -5 7 C-4.75 4.625 -4.75 4.625 -4 2 C-1.9375 0.6875 -1.9375 0.6875 0 0 Z " fill="#DDAC13" transform="translate(45,217)"/>
<path d="M0 0 C0.66 0.33 1.32 0.66 2 1 C0.1875 3.5 0.1875 3.5 -2 6 C-2.99 6 -3.98 6 -5 6 C-5 5.34 -5 4.68 -5 4 C-4.34 4 -3.68 4 -3 4 C-3 3.01 -3 2.02 -3 1 C-2.01 0.67 -1.02 0.34 0 0 Z " fill="#E8B819" transform="translate(155,186)"/>
<path d="M0 0 C0.33 1.32 0.66 2.64 1 4 C-1.375 5.5625 -1.375 5.5625 -4 7 C-4.66 6.67 -5.32 6.34 -6 6 C-4.02 4.02 -2.04 2.04 0 0 Z " fill="#132C65" transform="translate(213,127)"/>
<path d="M0 0 C0.763125 0.309375 1.52625 0.61875 2.3125 0.9375 C4.18789677 1.67893593 6.08684652 2.36228217 8 3 C7.01 4.485 7.01 4.485 6 6 C4 6 4 6 1.875 4.125 C0 2 0 2 0 0 Z " fill="#1F3D5B" transform="translate(295,7)"/>
</svg>
